<?xml version="1.0" encoding="UTF-8"?>
<svg width="15px" height="16px" viewBox="0 0 15 16" version="1.1" xmlns="http://www.w3.org/2000/svg" xmlns:xlink="http://www.w3.org/1999/xlink">
    <title>地址薄</title>
    <g id="登录" stroke="none" stroke-width="1" fill="none" fill-rule="evenodd">
        <g id="切图" transform="translate(-131.000000, -1008.000000)" fill="#3674D7" fill-rule="nonzero">
            <g id="地址薄" transform="translate(131.000000, 1008.000000)">
                <path d="M12.8918919,16 L2.70270269,16 C2.31461071,16 2,15.6743889 2,15.2727273 L2,0.727272734 C2,0.3256111 2.31461071,0 2.70270269,0 L12.8918919,0 C14.0561678,0 15,0.976833276 15,2.18181819 L15,13.8181818 C15,15.0231667 14.0561678,16 12.8918919,16 L12.8918919,16 Z M3.4054054,14.5454545 L12.8918919,14.5454545 C13.2799839,14.5454545 13.5945946,14.2198435 13.5945946,13.8181818 L13.5945946,2.18181819 C13.5945946,1.78015655 13.2799839,1.45454545 12.8918919,1.45454545 L3.4054054,1.45454545 L3.4054054,14.5454545 Z" id="形状"></path>
                <path d="M4.12500001,5.07117508 L0.687500006,5.07117508 C0.307843594,5.07111413 0.00010077065,4.73401367 0.00010077065,4.31820025 C0.00010077065,3.90238684 0.307843594,3.56528638 0.687500006,3.56522543 L4.12500001,3.56522543 C4.50465642,3.56528638 4.81239925,3.90238684 4.81239925,4.31820025 C4.81239925,4.73401367 4.50465642,5.07111413 4.12500001,5.07117508 Z M10.3125,12.8004617 C9.93280424,12.8004617 9.625,12.4633434 9.625,12.0474868 L9.625,0.752864465 C9.62505565,0.337051053 9.93284358,0 10.3125,0 C10.6921564,0 10.9999444,0.337051053 11,0.752864465 L11,12.0474868 C11,12.4633434 10.6921958,12.8004617 10.3125,12.8004617 L10.3125,12.8004617 Z M4.12500001,9.03558755 L0.687500006,9.03558755 C0.307804237,9.03558755 0,8.69846923 0,8.28261271 C0,7.8667562 0.307804237,7.52963788 0.687500006,7.52963788 L4.12500001,7.52963788 C4.50469577,7.52963788 4.81249999,7.86675621 4.81249999,8.28261271 C4.81249999,8.69846922 4.50469577,9.03558755 4.12500001,9.03558755 L4.12500001,9.03558755 Z M4.12500001,13 L0.687500006,13 C0.307843594,12.9999391 0.000100770648,12.6628386 0.000100770648,12.2470252 C0.000100770648,11.8312118 0.307843594,11.4941113 0.687500006,11.4940504 L4.12500001,11.4940504 C4.50465642,11.4941113 4.81239925,11.8312118 4.81239925,12.2470252 C4.81239925,12.6628386 4.50465642,12.9999391 4.12500001,13 L4.12500001,13 Z" id="形状"></path>
            </g>
        </g>
    </g>
</svg>