<?xml version="1.0" encoding="UTF-8"?>
<svg width="18px" height="23px" viewBox="0 0 18 23" version="1.1" xmlns="http://www.w3.org/2000/svg" xmlns:xlink="http://www.w3.org/1999/xlink">
    <title>形状</title>
    <g id="C端展示页面" stroke="none" stroke-width="1" fill="none" fill-rule="evenodd">
        <g id="banner-1" transform="translate(-391.000000, -709.000000)" fill="#FFFFFF" fill-rule="nonzero">
            <g id="编组-4" transform="translate(360.000000, 498.000000)">
                <g id="分组-7" transform="translate(1.000000, 198.000000)">
                    <g id="Download-app-Copy">
                        <g id="编组-3" transform="translate(30.000000, 13.000000)">
                            <path d="M15.0345079,12.5030978 C15.0601127,10.7529858 15.9621495,9.14037652 17.4203725,8.23778667 C16.4808765,6.89282725 14.9875535,6.07251868 13.3781581,6.01732739 C11.6563513,5.84269549 10.018026,7.04560686 9.14431574,7.04560686 C8.27060548,7.04560686 6.92351694,6.04464411 5.49579279,6.07000964 C3.59793374,6.1170274 1.86278421,7.1832432 0.923280954,8.87972966 C-1.02240822,12.3079783 0.426186311,17.3810839 2.32634008,20.1634872 C3.25507227,21.5293233 4.36120271,23.0532061 5.81548918,22.9985727 C7.21570235,22.9410125 7.74505122,22.0795601 9.43744981,22.0795601 C11.1298484,22.0795601 11.6041753,22.9985727 13.0859727,22.9683292 C14.5914865,22.9380857 15.546781,21.5820055 16.4698212,20.2181206 C17.1287494,19.2391012 17.6443089,18.1658773 18,17.0327957 C16.2200144,16.268145 15.0538238,14.4868248 15.0345079,12.5030978 Z M12.6932657,4.15912695 C13.6290227,3.01278844 14.0940353,1.51456317 13.9841573,0 C12.5760138,0.142212303 11.2705181,0.84662483 10.3298264,1.97178469 C9.39179017,3.06571302 8.9156166,4.52132795 9.01230753,5.99930805 C10.4405746,6.0247953 11.7995624,5.34499255 12.6932657,4.15799243 L12.6932657,4.15912695 Z" id="形状"></path>
                        </g>
                    </g>
                </g>
            </g>
        </g>
    </g>
</svg>