<?xml version="1.0" encoding="UTF-8"?>
<svg width="7px" height="12px" viewBox="0 0 7 12" version="1.1" xmlns="http://www.w3.org/2000/svg" xmlns:xlink="http://www.w3.org/1999/xlink">
    <title>路径 copy</title>
    <g id="首页" stroke="none" stroke-width="1" fill="none" fill-rule="evenodd">
        <g transform="translate(-216.000000, -370.000000)" fill="#62697F" fill-rule="nonzero" id="首页左菜单">
            <g>
                <path d="M216.19399,380.949249 C215.935337,381.191026 215.935337,381.57787 216.19399,381.819647 C216.317633,381.934655 216.486753,382 216.662978,382 C216.839204,382 217.006903,381.934655 217.130545,381.819647 L222.458532,376.869092 L222.718607,376.627314 C223.093798,376.279678 223.093798,375.719015 222.718607,375.371379 L222.458532,375.129601 L217.130545,370.180353 C216.871891,369.939882 216.452644,369.939882 216.19399,370.180353 C215.935337,370.42213 215.935337,370.808974 216.19399,371.050751 L221.209319,375.709867 C221.382702,375.870616 221.382702,376.129384 221.209319,376.288826 L216.19399,380.949249 Z" id="路径-copy"></path>
            </g>
        </g>
    </g>
</svg>