<?xml version="1.0" encoding="UTF-8"?>
<svg width="18px" height="14px" viewBox="0 0 18 14" version="1.1" xmlns="http://www.w3.org/2000/svg" xmlns:xlink="http://www.w3.org/1999/xlink">
    <title>形状备份</title>
    <g id="登录" stroke="none" stroke-width="1" fill="none" fill-rule="evenodd">
        <g id="切图" transform="translate(-181.000000, -154.000000)" fill="#828AA4" fill-rule="nonzero">
            <path d="M199,159.4 C199,158.41 198.220789,157.6 197.269474,157.6 L183.595789,157.6 C183.105526,157.6 182.730526,157.21 182.730526,156.7 C182.730526,156.19 183.134737,155.8 183.595789,155.8 L196.404211,155.8 C196.894474,155.8 197.269474,155.41 197.269474,154.9 C197.269474,154.39 196.894474,154 196.404211,154 L195.538158,154 L196.115263,154 L182.730526,154 C181.778421,154 181,154.81 181,155.8 L181,166.2 C181,167.19 181.778421,168 182.730526,168 L197.269474,168 C198.220789,168 199,167.19 199,166.2 L199,159.4 Z M192.499609,161 L195.500391,161 C196.350078,161 197,161.433333 197,162 C197,162.566667 196.350078,163 195.500391,163 L192.499609,163 C191.649922,163 191,162.566667 191,162 C191,161.433333 191.649922,161 192.499609,161 Z" id="形状备份"></path>
        </g>
    </g>
</svg>