<?xml version="1.0" encoding="UTF-8"?>
<svg width="16px" height="16px" viewBox="0 0 16 16" version="1.1" xmlns="http://www.w3.org/2000/svg" xmlns:xlink="http://www.w3.org/1999/xlink">
    <title>认证 copy</title>
    <g id="个人信息" stroke="none" stroke-width="1" fill="none" fill-rule="evenodd">
        <g id="1" transform="translate(-1704.000000, -499.000000)" fill-rule="nonzero">
            <g id="认证-copy" transform="translate(1705.000000, 500.000000)">
                <path d="M4.4784916,1.31744422 L3.03853955,1.31744422 C2.55823388,1.31744422 2.12877888,1.50894193 1.8188604,1.8188604 C1.50894193,2.12877888 1.31744422,2.55823388 1.31744422,3.03853955 L1.31744422,4.4784916 L-0.0127825995,5.80871841 C-0.335842012,6.13177783 -0.5,6.56520809 -0.5,7 C-0.5,7.43479191 -0.335842012,7.86822217 -0.0127825995,8.19128159 L1.31744422,9.5215084 L1.31744422,10.9614604 C1.31744422,11.4417661 1.50894193,11.8712211 1.8188604,12.1811396 C2.12877888,12.4910581 2.55823388,12.6825558 3.03853955,12.6825558 L4.4784916,12.6825558 L5.80871841,14.0127826 C6.13177783,14.335842 6.56520809,14.5 7,14.5 C7.43479191,14.5 7.86822217,14.335842 8.19128159,14.0127826 L9.5215084,12.6825558 L10.9614604,12.6825558 C11.4417661,12.6825558 11.8712211,12.4910581 12.1811396,12.1811396 C12.4910581,11.8712211 12.6825558,11.4417661 12.6825558,10.9614604 L12.6825558,9.5215084 L14.0177073,8.1863569 C14.3404207,7.84655826 14.5,7.41500435 14.5,6.98935091 C14.5,6.55844744 14.3370765,6.13301232 14.0127826,5.80871841 L12.6825558,4.4784916 L12.6825558,3.03853955 C12.6825558,2.55823388 12.4910581,2.12877888 12.1811396,1.8188604 C11.8712211,1.50894193 11.4417661,1.31744422 10.9614604,1.31744422 L9.5215084,1.31744422 L8.19128159,-0.0127825995 C7.86822217,-0.335842012 7.43479191,-0.5 7,-0.5 C6.56520809,-0.5 6.13177783,-0.335842012 5.80871841,-0.0127825995 L4.4784916,1.31744422 Z" id="形状" stroke="#FFFFFF" fill="#3674D7"></path>
                <path d="M9.80851064,6.03071672 L6.94326241,8.81569966 C6.68794326,9.06143345 6.29078014,9.06143345 6.03546099,8.81569966 L4.19148936,7.04095563 C3.93617021,6.79522184 3.93617021,6.41296928 4.19148936,6.16723549 C4.44680851,5.92150171 4.84397163,5.92150171 5.09929078,6.16723549 L6.4893617,7.50511945 L8.90070922,5.18430034 C9.15602837,4.93856655 9.55319149,4.93856655 9.80851064,5.18430034 C10.0638298,5.40273038 10.0638298,5.81228669 9.80851064,6.03071672 L9.80851064,6.03071672 Z" id="路径" fill="#FFFFFF"></path>
            </g>
        </g>
    </g>
</svg>