<?xml version="1.0" encoding="UTF-8"?>
<svg width="40px" height="40px" viewBox="0 0 40 40" version="1.1" xmlns="http://www.w3.org/2000/svg" xmlns:xlink="http://www.w3.org/1999/xlink">
    <!-- Generator: Sketch 53.2 (72643) - https://sketchapp.com -->
    <title>分组 4</title>
    <desc>Created with Sketch.</desc>
    <defs>
        <circle id="path-1" cx="20" cy="20" r="20"></circle>
        <filter x="-21.0%" y="-26.4%" width="145.4%" height="158.2%" filterUnits="objectBoundingBox" id="filter-3">
            <feOffset dx="0" dy="1" in="SourceAlpha" result="shadowOffsetOuter1"></feOffset>
            <feGaussianBlur stdDeviation="1" in="shadowOffsetOuter1" result="shadowBlurOuter1"></feGaussianBlur>
            <feColorMatrix values="0 0 0 0 0   0 0 0 0 0   0 0 0 0 0  0 0 0 0.0806381119 0" type="matrix" in="shadowBlurOuter1" result="shadowMatrixOuter1"></feColorMatrix>
            <feMerge>
                <feMergeNode in="shadowMatrixOuter1"></feMergeNode>
                <feMergeNode in="SourceGraphic"></feMergeNode>
            </feMerge>
        </filter>
    </defs>
    <g id="首页" stroke="none" stroke-width="1" fill="none" fill-rule="evenodd">
        <g id="1-1提现" transform="translate(-875.000000, -451.000000)">
            <g id="分组-2" transform="translate(752.000000, 376.000000)">
                <g id="分组-5" transform="translate(123.000000, 75.000000)">
                    <g id="分组-4">
                        <mask id="mask-2" fill="white">
                            <use xlink:href="#path-1"></use>
                        </mask>
                        <use id="Mask" fill="#DBE2EF" xlink:href="#path-1"></use>
                        <g id="钱" mask="url(#mask-2)">
                            <g transform="translate(4.000000, 7.000000)">
                                <g id="分组-14" transform="translate(2.300654, 7.940299)">
                                    <g id="分组-13">
                                        <polygon id="路径-9" fill="#BCE48C" points="0.077001634 12.1636835 0.077001634 14.8743878 8.90767974 19.8666628 29.6746324 7.77133862 29.6746324 5.15858209 20.8474265 0"></polygon>
                                        <g id="分组-12" transform="translate(0.000000, 0.417910)">
                                            <ellipse id="椭圆形" fill="#47923D" cx="20.838031" cy="4.40928898" rx="1.67320261" ry="1.14925373"></ellipse>
                                            <ellipse id="椭圆形-copy-11" fill="#47923D" cx="8.88888889" cy="11.9104478" rx="1.56862745" ry="1.04477612"></ellipse>
                                            <ellipse id="椭圆形" fill="#47923D" cx="14.5635212" cy="7.96152779" rx="4.39215686" ry="3.02985075"></ellipse>
                                            <polygon id="路径-10" fill="#33662B" points="8.88786765 16.8659996 8.88786765 19.3981533 29.5976307 7.3420082 29.5976307 4.81676291"></polygon>
                                            <polygon id="路径-11" fill="#468F3D" points="0 11.787 0 14.5089275 8.88786765 19.3981533 8.88786765 16.8659996"></polygon>
                                            <path d="M3.53186275,10.8292975 C3.71092048,11.4756562 3.71092048,11.9239131 3.53186275,12.1740682 C3.35280501,12.4242233 2.86798747,12.2763557 2.07741013,11.7304656 L3.53186275,10.8292975 Z" id="路径-13" fill="#47923D"></path>
                                            <path d="M27.5212418,3.6779457 C27.7002996,4.49975462 27.7002996,5.06968816 27.5212418,5.3877463 C27.3421841,5.70580445 26.8573666,5.51779916 26.0667892,4.82373045 L27.5212418,3.6779457 Z" id="路径-13" fill="#47923D" transform="translate(26.861162, 4.607808) scale(-1, -1) translate(-26.861162, -4.607808) "></path>
                                            <path d="M21.611857,0.434744867 C21.6323609,1.05777365 21.5530514,1.52843312 21.3739287,1.84672326 C21.194806,2.16501341 20.7498451,2.21862429 20.039046,2.00755589 L21.611857,0.434744867 Z" id="路径-13" fill="#47923D" transform="translate(20.827031, 1.284269) scale(-1, -1) rotate(45.000000) translate(-20.827031, -1.284269) "></path>
                                            <path d="M9.56809708,13.8074896 C9.74669439,14.6295721 9.74642897,15.1997531 9.5673008,15.5180327 C9.38817263,15.8363123 8.73542712,15.8750738 7.60906428,15.6343172 L9.56809708,13.8074896 Z" id="路径-13" fill="#47923D" transform="translate(8.655455, 14.798667) scale(-1, -1) rotate(223.000000) translate(-8.655455, -14.798667) "></path>
                                        </g>
                                        <path d="M8.89705669,15.7831334 L27.2611217,5.01950792 L20.9007444,1.35406346 L2.70620567,12.2498299 L8.89705669,15.7831334 Z M1.46405229,12.2628376 L20.8946396,0.626865672 L28.5089182,5.01492537 L8.90124018,16.5074627 L1.46405229,12.2628376 Z" id="路径-12" fill="#48923E" fill-rule="nonzero"></path>
                                        <polygon id="路径-14" fill="#EBE080" points="9.41176471 6.57930521 18.1028179 11.6810935 21.1009502 10.2868645 12.1536559 5.01492537"></polygon>
                                        <polygon id="路径-14-copy" fill="#D7CD79" points="17.9869281 11.6330351 17.9869281 14.5788072 20.9850604 12.661836 20.9850604 10.238806"></polygon>
                                        <polygon id="路径-14" fill="#FFFFFF" points="9.92270631 6.39012262 18.5635728 11.5312358 20.786047 10.31684 11.9459105 5.30594617"></polygon>
                                        <polygon id="路径-14-copy-2" fill="#F2F2F2" points="18.447683 11.4831774 18.447683 14.1954988 20.6701572 13.0178067 20.6701572 10.2687815"></polygon>
                                    </g>
                                </g>
                                <g id="分组-14-copy" filter="url(#filter-3)">
                                    <g id="分组-13" transform="translate(0.000000, 4.597015)">
                                        <polygon id="路径-9" fill="#BCE48C" points="0.077001634 12.1636835 0.077001634 14.8743878 8.90767974 19.8666628 29.6746324 7.77133862 29.6746324 5.15858209 20.8474265 0"></polygon>
                                        <g id="分组-12" transform="translate(0.000000, 0.417910)">
                                            <ellipse id="椭圆形" fill="#47923D" cx="20.838031" cy="4.40928898" rx="1.67320261" ry="1.14925373"></ellipse>
                                            <ellipse id="椭圆形-copy-11" fill="#47923D" cx="8.88888889" cy="11.9104478" rx="1.56862745" ry="1.04477612"></ellipse>
                                            <ellipse id="椭圆形" fill="#47923D" cx="14.5635212" cy="7.96152779" rx="4.39215686" ry="3.02985075"></ellipse>
                                            <polygon id="路径-10" fill="#33662B" points="8.88786765 16.8659996 8.88786765 19.3981533 29.5976307 7.3420082 29.5976307 4.81676291"></polygon>
                                            <polygon id="路径-11" fill="#468F3D" points="0 11.787 0 14.5089275 8.88786765 19.3981533 8.88786765 16.8659996"></polygon>
                                            <path d="M3.53186275,10.8292975 C3.71092048,11.4756562 3.71092048,11.9239131 3.53186275,12.1740682 C3.35280501,12.4242233 2.86798747,12.2763557 2.07741013,11.7304656 L3.53186275,10.8292975 Z" id="路径-13" fill="#47923D"></path>
                                            <path d="M27.5212418,3.6779457 C27.7002996,4.49975462 27.7002996,5.06968816 27.5212418,5.3877463 C27.3421841,5.70580445 26.8573666,5.51779916 26.0667892,4.82373045 L27.5212418,3.6779457 Z" id="路径-13" fill="#47923D" transform="translate(26.861162, 4.607808) scale(-1, -1) translate(-26.861162, -4.607808) "></path>
                                            <path d="M21.611857,0.434744867 C21.6323609,1.05777365 21.5530514,1.52843312 21.3739287,1.84672326 C21.194806,2.16501341 20.7498451,2.21862429 20.039046,2.00755589 L21.611857,0.434744867 Z" id="路径-13" fill="#47923D" transform="translate(20.827031, 1.284269) scale(-1, -1) rotate(45.000000) translate(-20.827031, -1.284269) "></path>
                                            <path d="M9.56809708,13.8074896 C9.74669439,14.6295721 9.74642897,15.1997531 9.5673008,15.5180327 C9.38817263,15.8363123 8.73542712,15.8750738 7.60906428,15.6343172 L9.56809708,13.8074896 Z" id="路径-13" fill="#47923D" transform="translate(8.655455, 14.798667) scale(-1, -1) rotate(223.000000) translate(-8.655455, -14.798667) "></path>
                                        </g>
                                        <path d="M8.89705669,15.7831334 L27.2611217,5.01950792 L20.9007444,1.35406346 L2.70620567,12.2498299 L8.89705669,15.7831334 Z M1.46405229,12.2628376 L20.8946396,0.626865672 L28.5089182,5.01492537 L8.90124018,16.5074627 L1.46405229,12.2628376 Z" id="路径-12" fill="#48923E" fill-rule="nonzero"></path>
                                        <polygon id="路径-14" fill="#EBE080" points="9.41176471 6.57930521 18.1028179 11.6810935 21.1009502 10.2868645 12.1536559 5.01492537"></polygon>
                                        <polygon id="路径-14-copy" fill="#D7CD79" points="17.9869281 11.6330351 17.9869281 14.5788072 20.9850604 12.661836 20.9850604 10.238806"></polygon>
                                        <polygon id="路径-14" fill="#FFFFFF" points="9.92270631 6.39012262 18.5635728 11.5312358 20.786047 10.31684 11.9459105 5.30594617"></polygon>
                                        <polygon id="路径-14-copy-2" fill="#F2F2F2" points="18.447683 11.4831774 18.447683 14.1954988 20.6701572 13.0178067 20.6701572 10.2687815"></polygon>
                                    </g>
                                    <g id="分组-13-copy" transform="translate(1.254902, 0.000000)">
                                        <polygon id="路径-9" fill="#BCE48C" points="0.077001634 12.1636835 0.077001634 14.8743878 8.90767974 19.8666628 29.6746324 7.77133862 29.6746324 5.15858209 20.8474265 0"></polygon>
                                        <g id="分组-12" transform="translate(0.000000, 0.417910)">
                                            <ellipse id="椭圆形" fill="#47923D" cx="20.838031" cy="4.40928898" rx="1.67320261" ry="1.14925373"></ellipse>
                                            <ellipse id="椭圆形-copy-11" fill="#47923D" cx="8.88888889" cy="11.9104478" rx="1.56862745" ry="1.04477612"></ellipse>
                                            <ellipse id="椭圆形" fill="#47923D" cx="14.5635212" cy="7.96152779" rx="4.39215686" ry="3.02985075"></ellipse>
                                            <polygon id="路径-10" fill="#33662B" points="8.88786765 16.8659996 8.88786765 19.3981533 29.5976307 7.3420082 29.5976307 4.81676291"></polygon>
                                            <polygon id="路径-11" fill="#468F3D" points="0 11.787 0 14.5089275 8.88786765 19.3981533 8.88786765 16.8659996"></polygon>
                                            <path d="M3.53186275,10.8292975 C3.71092048,11.4756562 3.71092048,11.9239131 3.53186275,12.1740682 C3.35280501,12.4242233 2.86798747,12.2763557 2.07741013,11.7304656 L3.53186275,10.8292975 Z" id="路径-13" fill="#47923D"></path>
                                            <path d="M27.5212418,3.6779457 C27.7002996,4.49975462 27.7002996,5.06968816 27.5212418,5.3877463 C27.3421841,5.70580445 26.8573666,5.51779916 26.0667892,4.82373045 L27.5212418,3.6779457 Z" id="路径-13" fill="#47923D" transform="translate(26.861162, 4.607808) scale(-1, -1) translate(-26.861162, -4.607808) "></path>
                                            <path d="M21.611857,0.434744867 C21.6323609,1.05777365 21.5530514,1.52843312 21.3739287,1.84672326 C21.194806,2.16501341 20.7498451,2.21862429 20.039046,2.00755589 L21.611857,0.434744867 Z" id="路径-13" fill="#47923D" transform="translate(20.827031, 1.284269) scale(-1, -1) rotate(45.000000) translate(-20.827031, -1.284269) "></path>
                                            <path d="M9.56809708,13.8074896 C9.74669439,14.6295721 9.74642897,15.1997531 9.5673008,15.5180327 C9.38817263,15.8363123 8.73542712,15.8750738 7.60906428,15.6343172 L9.56809708,13.8074896 Z" id="路径-13" fill="#47923D" transform="translate(8.655455, 14.798667) scale(-1, -1) rotate(223.000000) translate(-8.655455, -14.798667) "></path>
                                        </g>
                                        <path d="M8.89705669,15.7831334 L27.2611217,5.01950792 L20.9007444,1.35406346 L2.70620567,12.2498299 L8.89705669,15.7831334 Z M1.46405229,12.2628376 L20.8946396,0.626865672 L28.5089182,5.01492537 L8.90124018,16.5074627 L1.46405229,12.2628376 Z" id="路径-12" fill="#48923E" fill-rule="nonzero"></path>
                                        <polygon id="路径-14" fill="#EBE080" points="9.41176471 6.57930521 18.1028179 11.6810935 21.1009502 10.2868645 12.1536559 5.01492537"></polygon>
                                        <polygon id="路径-14-copy" fill="#D7CD79" points="17.9869281 11.6330351 17.9869281 14.5788072 20.9850604 12.661836 20.9850604 10.238806"></polygon>
                                        <polygon id="路径-14" fill="#FFFFFF" points="9.92270631 6.39012262 18.5635728 11.5312358 20.786047 10.31684 11.9459105 5.30594617"></polygon>
                                        <polygon id="路径-14-copy-2" fill="#F2F2F2" points="18.447683 11.4831774 18.447683 14.1954988 20.6701572 13.0178067 20.6701572 10.2687815"></polygon>
                                    </g>
                                </g>
                            </g>
                        </g>
                    </g>
                </g>
            </g>
        </g>
    </g>
</svg>