<?xml version="1.0" encoding="UTF-8"?>
<svg width="20px" height="20px" viewBox="0 0 20 20" version="1.1" xmlns="http://www.w3.org/2000/svg" xmlns:xlink="http://www.w3.org/1999/xlink">
    <title>联系人 copy</title>
    <g id="登录" stroke="none" stroke-width="1" fill="none" fill-rule="evenodd">
        <g id="切图" transform="translate(-177.000000, -1008.000000)">
            <g id="联系人-copy" transform="translate(177.000000, 1008.000000)">
                <path d="M13.5313477,12.5053979 C12.7724414,11.9318829 11.9410742,11.4951255 11.0594727,11.2070203 C13.0075586,10.2389158 14.3513477,8.22755056 14.3513477,5.91134188 C14.3513477,2.65189194 11.6978516,0 8.43675781,0 C5.17568359,0 2.52216797,2.65189194 2.52216797,5.91134188 C2.52216797,8.2302654 3.86541016,10.242158 5.81675781,11.2097156 C2.44378906,12.3151247 0,15.4902583 0,19.2248445 C0,19.6080863 0.310820313,19.9216016 0.697304688,19.9216016 C1.08054688,19.9216016 1.3940625,19.6113285 1.3940625,19.2248445 C1.3940625,15.342153 4.5540625,12.1837772 8.43945313,12.1837772 C9.99027344,12.1837772 11.4626953,12.6788939 12.6940625,13.6129555 C12.9962109,13.8453771 13.4329688,13.7864709 13.6654102,13.4789126 C13.897832,13.1740496 13.8389258,12.7372922 13.5313477,12.5053979 Z M3.91351562,5.91136141 C3.91351562,3.41894197 5.94269531,1.39027208 8.43675781,1.39027208 C10.9308203,1.39027208 12.96,3.41894197 12.96,5.91136141 C12.96,8.40380039 10.9308203,10.4324507 8.43675781,10.4324507 C5.94269531,10.4324507 3.91351562,8.40380039 3.91351562,5.91136141 Z M10.8129688,14.7659426 C10.8129688,15.1491844 11.1237891,15.4648677 11.5102734,15.4648677 L19.3026953,15.4648677 C19.6864844,15.4648677 20,15.1518993 20,14.7659426 C20,14.3821539 19.6891797,14.0664902 19.3026953,14.0664902 L11.5075781,14.0664902 C11.1237891,14.0664902 10.8129688,14.3794586 10.8129688,14.7659426 Z M19.3,16.3351403 L11.5075586,16.3351403 C11.1237695,16.3351403 10.8102734,16.6486556 10.8102734,17.0345927 C10.8102734,17.4205299 11.1210742,17.7340647 11.5075586,17.7340647 L19.3,17.7340647 C19.6837891,17.7340647 19.9973047,17.4205494 19.9973047,17.0345927 C19.9973047,16.6486556 19.6837891,16.3351403 19.3,16.3351403 Z M19.3,18.6010756 L11.5075586,18.6010756 C11.1237695,18.6010756 10.8102734,18.9145909 10.8102734,19.3005476 C10.8102734,19.6837894 11.1210742,20 11.5075586,20 L19.3,20 C19.6837891,20 19.9973047,19.6864847 19.9973047,19.3005476 C19.9945898,18.9146104 19.6837891,18.6010756 19.3,18.6010756 Z" id="形状" fill="#3674D7" fill-rule="nonzero"></path>
                <rect id="矩形" x="0" y="0" width="20" height="20"></rect>
            </g>
        </g>
    </g>
</svg>