<?xml version="1.0" encoding="UTF-8"?>
<svg width="18px" height="14px" viewBox="0 0 18 14" version="1.1" xmlns="http://www.w3.org/2000/svg" xmlns:xlink="http://www.w3.org/1999/xlink">
    <title>形状备份 4</title>
    <g id="登录" stroke="none" stroke-width="1" fill="none" fill-rule="evenodd">
        <g id="切图" transform="translate(-217.000000, -154.000000)" fill="#828AA4" fill-rule="nonzero">
            <path d="M224.714286,165.569444 C224.714286,166.416791 224.846023,167.233368 225.090133,167.999812 L217.994795,168 C217.445344,168 217,167.555503 217,167.007097 L217,167.007097 L217,166.249 L220.771244,166.25 C221.024572,166.25 221.234034,166.094569 221.277454,165.890919 L221.285714,165.8125 C221.285714,165.570144 221.054387,165.375 220.771244,165.375 L220.771244,165.375 L217,165.374 L217,163.624 L221.642707,163.625 C221.887385,163.625 222.09226,163.470812 222.134767,163.266334 L222.142857,163.1875 C222.142857,162.945144 221.91797,162.75 221.642707,162.75 L221.642707,162.75 L217,162.749 L217,158.375 L229.212058,158.374763 C226.549027,159.673496 224.714286,162.407207 224.714286,165.569444 Z M231.199252,159.25 L231.199252,161.460334 C233.976326,161.990083 235.189694,163.743737 234.976073,166.712161 C234.121588,165.871868 232.916766,165.342119 231.489777,165.186848 L231.489777,165.186848 L231.489777,168 L227.285714,163.661534 L231.199252,159.25 Z M233.071067,154 C233.662865,154 234.142857,154.522482 234.140941,155.166667 L234.140941,155.166667 L234.140941,156.5 L217,156.5 L217,155.166667 C217,154.522482 217.479992,154 218.07179,154 L218.07179,154 Z" id="形状备份-4"></path>
        </g>
    </g>
</svg>