<?xml version="1.0" encoding="UTF-8"?>
<svg width="13px" height="14px" viewBox="0 0 13 14" version="1.1" xmlns="http://www.w3.org/2000/svg" xmlns:xlink="http://www.w3.org/1999/xlink">
    <!-- Generator: Sketch 53.2 (72643) - https://sketchapp.com -->
    <title>铃铛</title>
    <desc>Created with Sketch.</desc>
    <g id="-" stroke="none" stroke-width="1" fill="none" fill-rule="evenodd" opacity="0.897321429">
        <g id="1" transform="translate(-1582.000000, -13.000000)" fill="#FFFFFF" fill-rule="nonzero">
            <g id="首页">
                <g id="铃铛" transform="translate(1582.000000, 13.000000)">
                    <path d="M6.5,0.875 C6.68711356,0.875 6.86609175,0.9296875 7.01903675,1.0328125 C7.17035467,1.1359375 7.28424989,1.278125 7.34933286,1.44375 L7.50227786,1.8375 L7.91880892,1.96875 C8.36950854,2.1109375 8.7925479,2.31875 9.17653747,2.5875 C9.55727289,2.853125 9.89245023,3.171875 10.17068,3.5359375 C10.7499185,4.2890625 11.0558085,5.184375 11.0558085,6.125 L11.0558085,9.890625 L11.2087535,10.1109375 L12.0873737,11.375 L8.423202,11.375 L8.20842817,11.95625 C8.08314344,12.2953125 7.85698009,12.5859375 7.55434424,12.796875 C7.2452001,13.0125 6.88073542,13.125 6.5,13.125 C6.11926458,13.125 5.7547999,13.0125 5.44728283,12.7984375 C5.14464698,12.5875 4.91848363,12.296875 4.7931989,11.9578125 L4.576798,11.375 L0.912626335,11.375 L1.79124654,10.1109375 L1.94419154,9.890625 L1.94419154,6.125 C1.94419154,5.184375 2.25008153,4.2890625 2.82932004,3.5359375 C3.10917684,3.171875 3.44272711,2.853125 3.82346253,2.5875 C4.20907917,2.31875 4.63211853,2.1109375 5.08119108,1.96875 L5.49772214,1.8375 L5.65066714,1.44375 C5.71575011,1.2765625 5.82964533,1.134375 5.98096325,1.0328125 C6.13390825,0.9296875 6.31288644,0.875 6.5,0.875 L6.5,0.875 Z M6.5,4.4408921e-16 C5.71900426,4.4408921e-16 5.05841204,0.475 4.79808012,1.1375 C2.61291914,1.825 1.03302984,3.796875 1.03302984,6.125 L1.03302984,9.625 L0.154409641,10.8890625 C-0.249104823,11.4703125 0.185324055,12.25 0.912626335,12.25 L3.93410359,12.25 C4.30995779,13.2671875 5.31223565,14 6.5,14 C7.68776435,14 8.69004221,13.2671875 9.06589641,12.25 L12.0873737,12.25 C12.8146759,12.25 13.2491048,11.471875 12.8455904,10.8890625 L11.9669702,9.625 L11.9669702,6.125 C11.9669702,3.796875 10.3870809,1.825 8.20191988,1.1375 C7.94158796,0.475 7.28099574,0 6.5,4.4408921e-16 Z" id="形状"></path>
                    <polygon id="路径" points="10 11 4 11 4 12 10 12"></polygon>
                </g>
            </g>
        </g>
    </g>
</svg>