<?xml version="1.0" encoding="UTF-8"?>
<svg width="23px" height="24px" viewBox="0 0 23 24" version="1.1" xmlns="http://www.w3.org/2000/svg" xmlns:xlink="http://www.w3.org/1999/xlink">
    <title>形状</title>
    <g id="C端展示页面" stroke="none" stroke-width="1" fill="none" fill-rule="evenodd">
        <g id="banner-1" transform="translate(-764.000000, -708.000000)" fill="#FFFFFF" fill-rule="nonzero">
            <g id="编组-4" transform="translate(360.000000, 498.000000)">
                <g id="编组-8" transform="translate(404.000000, 210.000000)">
                    <path d="M0.751444356,24 C0.296866892,23.8842353 0,23.4603529 0,22.8049412 L0,1.16470589 C0,0.557647055 0.250852524,0.148235297 0.648283103,0 L11.9908257,12.0592941 L0.751444356,24 Z M2.31296433,23.5411765 L15.9662447,16.2864706 L12.6405931,12.7510588 L2.31259324,23.5411765 L2.31296433,23.5411765 Z M16.0601289,7.73858824 L2.59758547,0.581647055 L12.6606316,11.3484706 L16.0605,7.73717646 L16.0601289,7.73858824 Z M16.9737368,8.22388235 L22.2475775,11.0269412 C23.2461636,11.5563529 23.2554407,12.4132941 22.2475775,12.9487059 L16.8401467,15.822 L13.3148521,12.0483529 L16.9733657,8.22352941 L16.9737368,8.22388235 Z" id="形状"></path>
                </g>
            </g>
        </g>
    </g>
</svg>