<?xml version="1.0" encoding="UTF-8"?>
<svg width="24px" height="24px" viewBox="0 0 24 24" version="1.1" xmlns="http://www.w3.org/2000/svg" xmlns:xlink="http://www.w3.org/1999/xlink">
    <!-- Generator: Sketch 53.2 (72643) - https://sketchapp.com -->
    <title>logo copy</title>
    <desc>Created with Sketch.</desc>
    <defs>
        <polygon id="path-1" points="0 0 23.5428571 0 23.5428571 24 0 24"></polygon>
    </defs>
    <g id="-" stroke="none" stroke-width="1" fill="none" fill-rule="evenodd" opacity="0.897460938">
        <g id="1" transform="translate(-28.000000, -8.000000)">
            <g id="首页">
                <g id="logo-copy" transform="translate(28.000000, 8.000000)">
                    <g id="鹰logo">
                        <g>
                            <mask id="mask-2" fill="white">
                                <use xlink:href="#path-1"></use>
                            </mask>
                            <g id="Clip-2"></g>
                            <path d="M18.7407498,17.4193548 L15.5686636,17.4193548 L20.157738,9.67741935 C20.38212,10.4552458 20.5050691,11.2762849 20.5050691,12.1260048 C20.5050691,14.1107243 19.8488284,15.9428612 18.7407498,17.4193548 M11.9453965,20.9032258 C11.7420733,20.9032258 11.5410649,20.893213 11.3404423,20.8795955 L9.87281106,17.8064516 L18.6064516,17.8064516 C16.9706061,19.7060895 14.5932286,20.9032258 11.9453965,20.9032258 M7.36967991,19.84069 C7.11087502,19.4524632 6.16516976,17.8239073 6.47266442,15.1704479 C6.47266442,15.1704479 5.85205705,16.1561831 6.10711657,18.9286834 C5.09774007,18.0516209 4.28724257,16.9430048 3.75277865,15.6819396 C4.00896177,14.8540296 4.64192886,13.414403 6.16217347,12.1375937 C6.16217347,12.1375937 5.80748718,11.9214001 3.47000341,14.5164911 C3.43854233,14.5518194 3.409703,14.5817716 3.37936552,14.6147958 C3.15838885,13.8302781 3.03778802,13.002752 3.03778802,12.1448897 C3.03778802,11.7482148 3.06550374,11.358452 3.11494259,10.9756012 C3.63667226,10.5482061 4.7056001,9.78788051 6.13258507,9.3773815 C6.13258507,9.3773815 4.83106991,9.25642062 3.42580808,10.0904747 C3.36063868,10.128875 3.30707993,10.1553712 3.25239757,10.1818674 C3.44490945,9.30710899 3.76289114,8.48150295 4.18649219,7.72540142 L4.50559749,7.35483871 L10.1258957,7.35483871 C10.1258957,7.35483871 12.7289261,7.87631452 12.8772426,8.51299118 C13.0248101,9.15005184 12.8772426,9.13469173 12.9510263,9.27139673 C13.0248101,9.40771773 12.9510263,9.42307784 13.335301,9.49911039 C13.7203248,9.57475895 15.5686636,10.2939962 15.5686636,12.1982661 L15.5686636,13.0169601 C15.5686636,13.0169601 14.8143466,12.1525698 13.7203248,12.1679299 C12.6255539,12.182906 11.3659869,12.2739147 10.7618591,12.6076131 C10.5693472,12.7139819 12.1225511,12.7139819 12.315063,12.7443181 C12.5072003,12.7742703 13.8824992,13.1229449 14.0604042,13.6689969 C14.23756,14.2150489 13.7053433,13.411331 12.7585145,13.3959709 C11.8120601,13.3809948 10.0375051,13.3959709 8.9723226,14.7611009 C7.93260862,16.0932066 8.30939258,17.9855725 10.2247734,20.9032258 C9.20004094,20.7215925 8.23748152,20.3564058 7.36967991,19.84069 M11.7431546,3.09677419 C12.0548759,3.09677419 12.3627536,3.11292474 12.6660189,3.14334787 L14.4294931,6.19354839 L4.93640553,6.19354839 C6.56919507,4.30055361 9.01184514,3.09677419 11.7431546,3.09677419 M20.1253456,8.49596871 L18.3760997,11.2258065 L13.6700461,3.09677419 C16.6042021,3.72733706 19.0079996,5.77900756 20.1253456,8.49596871 M4.58255495,-1.13686838e-13 C2.06222532,-1.13686838e-13 0,2.10226853 0,4.67192191 L0,19.3284634 C0,21.8977315 2.06222532,24 4.58255495,24 L18.9603022,24 C21.4806318,24 23.5428571,21.8977315 23.5428571,19.3284634 L23.5428571,4.67192191 C23.5428571,2.10226853 21.4806318,-1.13686838e-13 18.9603022,-1.13686838e-13 L4.58255495,-1.13686838e-13 Z" id="Fill-1" fill="#FFFFFF" mask="url(#mask-2)"></path>
                            <path d="M10.7931259,10.4516129 C11.2543156,10.4516129 11.7714286,9.58573022 11.7714286,9.58573022 C10.4296248,9.81885248 9.49308756,8.90322581 9.49308756,8.90322581 C9.68881889,9.98578994 10.3315822,10.4516129 10.7931259,10.4516129" id="Fill-3" fill="#FFFFFF" mask="url(#mask-2)"></path>
                        </g>
                    </g>
                </g>
            </g>
        </g>
    </g>
</svg>