<?xml version="1.0" encoding="UTF-8"?>
<svg width="16px" height="15px" viewBox="0 0 16 15" version="1.1" xmlns="http://www.w3.org/2000/svg" xmlns:xlink="http://www.w3.org/1999/xlink">
    <!-- Generator: Sketch 53.2 (72643) - https://sketchapp.com -->
    <title>Shape</title>
    <desc>Created with Sketch.</desc>
    <g id="-" stroke="none" stroke-width="1" fill="none" fill-rule="evenodd" opacity="0.897321429">
        <g id="1" transform="translate(-1813.000000, -13.000000)" fill="#FFFFFF">
            <g id="首页">
                <path d="M1826.41132,16.1340539 C1825.81144,15.5306441 1825.10813,15.0559394 1824.31864,14.7233118 C1823.50156,14.3789837 1822.63276,14.2051482 1821.73294,14.2051482 C1819.99881,14.2051482 1818.3681,14.8603744 1817.14248,16.0488077 C1815.91514,17.2372409 1815.24113,18.8184756 1815.24113,20.5 C1815.24113,22.1815244 1815.91686,23.7627591 1817.14248,24.9511923 C1818.3681,26.1396256 1819.99881,26.7948518 1821.73294,26.7948518 C1823.46708,26.7948518 1825.09779,26.1396256 1826.32341,24.9511923 C1826.56647,24.7155115 1826.95949,24.7155115 1827.20082,24.9511923 C1827.44388,25.1868732 1827.44388,25.5679741 1827.20082,25.8019835 C1826.49234,26.4923111 1825.66492,27.0322041 1824.74441,27.4099621 C1823.79116,27.801092 1822.77756,28 1821.73294,28 C1820.68832,28 1819.67646,27.801092 1818.7232,27.4099621 C1817.80269,27.0322041 1816.97527,26.4923111 1816.26507,25.803655 C1815.55486,25.1149989 1814.99808,24.3126811 1814.6085,23.4201025 C1814.20341,22.494094 1814,21.5129262 1814,20.5 C1814,19.4870738 1814.20513,18.505906 1814.6085,17.5798975 C1814.99808,16.6873189 1815.55486,15.8850011 1816.26507,15.196345 C1816.97527,14.5076889 1817.80269,13.9677959 1818.7232,13.5900379 C1819.67646,13.198908 1820.69005,13 1821.73467,13 C1822.80514,13 1823.84115,13.2072654 1824.81509,13.6184533 C1825.75456,14.0145977 1826.59405,14.5795632 1827.3077,15.2983062 C1827.54558,15.5373301 1827.53869,15.918431 1827.29046,16.1490974 C1827.04223,16.3797638 1826.64921,16.3730778 1826.41132,16.1340539 L1826.41132,16.1340539 Z M1827.46039,20.5 L1820.33262,20.5 C1819.98497,20.5 1819.7037,20.2776243 1819.7037,20.0027624 L1819.7037,19.9972376 C1819.7037,19.7223757 1819.98497,19.5 1820.33262,19.5 L1827.46039,19.5 C1827.46039,19.5 1828,19.5235375 1828,20.0055736 C1828,20.4876097 1827.46039,20.5 1827.46039,20.5 Z" id="Shape" transform="translate(1821.000000, 20.500000) scale(1, -1) rotate(-270.000000) translate(-1821.000000, -20.500000) "></path>
            </g>
        </g>
    </g>
</svg>