<?xml version="1.0" encoding="UTF-8"?>
<svg width="19px" height="15px" viewBox="0 0 19 15" version="1.1" xmlns="http://www.w3.org/2000/svg" xmlns:xlink="http://www.w3.org/1999/xlink">
    <!-- Generator: Sketch 53.2 (72643) - https://sketchapp.com -->
    <title>分组 8</title>
    <desc>Created with Sketch.</desc>
    <g id="首页" stroke="none" stroke-width="1" fill="none" fill-rule="evenodd">
        <g transform="translate(-66.000000, -329.000000)" fill="#828AA4" fill-rule="nonzero" id="首页左菜单">
            <g>
                <g id="分组-8" transform="translate(66.000000, 329.000000)">
                    <path d="M11.861935,12 L8,14 L18.0106076,14 C18.5547824,14 19,13.4316183 19,12.7365524 L19,12 L11.861935,12 L11.861935,12 Z" id="路径"></path>
                    <path d="M18.0332657,5 L16,5 L17.690232,9.26061793 C17.9392069,9.8874247 17.7483519,10.586625 17.2668098,11 L19,11 L19,5.98796731 C19,5.44454941 18.5649783,5 18.0332657,5 L18.0332657,5 Z" id="路径"></path>
                    <path d="M2.22311008,14.3779044 C2.43357769,14.8864223 3.03032464,15.1333867 3.54925753,14.9272029 L16.364863,9.83744481 C16.8837959,9.63129724 17.1362387,9.04699221 16.9256972,8.53881825 L16.7023099,8 L2,13.8391043 L2.22311008,14.3779044 L2.22311008,14.3779044 Z" id="路径"></path>
                    <path d="M12.8730216,0.0717633971 L0.607915989,5.09395432 C0.111261911,5.29736164 -0.130343068,5.87388183 0.0710533768,6.37531866 L1.92858845,12 L16,6.23822727 L14.1424649,0.6135102 C13.9410154,0.112305552 13.369941,-0.1316082 12.8730216,0.0717633971 Z" id="路径"></path>
                </g>
            </g>
        </g>
    </g>
</svg>