<?xml version="1.0" encoding="UTF-8"?>
<svg width="18px" height="14px" viewBox="0 0 18 14" version="1.1" xmlns="http://www.w3.org/2000/svg" xmlns:xlink="http://www.w3.org/1999/xlink">
    <!-- Generator: Sketch 53.2 (72643) - https://sketchapp.com -->
    <title>个人信息</title>
    <desc>Created with Sketch.</desc>
    <g id="首页" stroke="none" stroke-width="1" fill="none" fill-rule="evenodd">
        <g transform="translate(-48.000000, -483.000000)" fill="#62697F" fill-rule="nonzero" id="首页左菜单">
            <g>
                <g id="个人信息" transform="translate(48.000000, 483.000000)">
                    <g id="形状">
                        <path d="M16.8532143,-2.84217094e-14 L1.14,-2.84217094e-14 C0.837653202,-2.84217094e-14 0.547689741,0.118791605 0.333898269,0.330242019 C0.120106798,0.541692432 -2.31511098e-16,0.828480736 0,1.12751678 L0,12.818792 C-5.74102607e-16,13.117828 0.120106798,13.4046163 0.333898269,13.6160667 C0.547689741,13.8275171 0.837653202,13.9463087 1.14,13.9463087 L16.8532143,13.9463087 C17.483926,13.9463197 17.996268,13.4425863 18,12.818792 L18,1.12751678 C18,0.828480736 17.8798932,0.541692432 17.6661017,0.330242019 C17.4523103,0.118791605 17.1623468,-2.89432907e-14 16.86,-2.84217094e-14 L16.8532143,-2.84217094e-14 Z M5.90785715,2.41610739 C6.73417485,2.40248434 7.48681961,2.88430739 7.81262754,3.63549047 C8.13843547,4.38667355 7.97274305,5.25812836 7.39329821,5.84094173 C6.81385337,6.42375509 5.93565929,6.60225528 5.17079142,6.29268455 C4.40592355,5.98311383 3.90618623,5.2469131 3.90607144,4.42953021 C3.92411385,3.3461586 4.80577293,2.47118784 5.90107144,2.44966442 L5.90785715,2.41610739 Z M1.93821429,11.4295302 C1.90025567,9.21826848 3.67248223,7.39054129 5.90785715,7.33557046 C8.13521438,7.40136623 9.89527525,9.22590335 9.85714285,11.4295302 L1.93821429,11.4295302 Z M14.5664286,10.1812081 L12.6392857,10.1812081 C12.2645211,10.1812081 11.9607143,9.88072803 11.9607143,9.51006712 C11.9607143,9.13940621 12.2645211,8.83892617 12.6392857,8.83892617 L14.6071429,8.83892617 C14.9819075,8.82409973 15.2978666,9.11256057 15.3128571,9.48322148 C15.3278477,9.85388239 15.0361932,10.1663816 14.6614286,10.1812081 L14.6003571,10.1812081 L14.5664286,10.1812081 Z M14.5664286,7.49664429 L11.3092857,7.49664429 C10.9345211,7.51147073 10.618562,7.22300989 10.6035714,6.85234899 C10.5885808,6.48168808 10.8802353,6.16918885 11.255,6.15436242 L14.6071429,6.15436242 C14.7929144,6.1451639 14.9743595,6.21179118 15.1090523,6.33866527 C15.243745,6.46553936 15.3198755,6.64153608 15.3196429,6.82550336 C15.3196428,7.19616426 15.0158361,7.49664428 14.6410714,7.49664429 L14.58,7.49664429 L14.5664286,7.49664429 Z M14.5664286,4.81208054 L10.2846429,4.81208054 C10.0422126,4.82167156 9.81302447,4.70261529 9.68341133,4.49975907 C9.55379819,4.29690285 9.5434514,4.04106537 9.65626848,3.82861813 C9.76908556,3.61617089 9.98792692,3.47938968 10.2303571,3.46979866 L14.5664286,3.46979866 C14.9411932,3.46979866 15.245,3.77027869 15.245,4.14093959 C15.2543004,4.32467691 15.1869354,4.50413519 15.0586566,4.63735298 C14.9303779,4.77057078 14.7524326,4.84586769 14.5664286,4.84563758 L14.5664286,4.81208054 Z"></path>
                    </g>
                </g>
            </g>
        </g>
    </g>
</svg>