<?xml version="1.0" encoding="UTF-8"?>
<svg width="18px" height="14px" viewBox="0 0 18 14" version="1.1" xmlns="http://www.w3.org/2000/svg" xmlns:xlink="http://www.w3.org/1999/xlink">
    <!-- Generator: Sketch 53.2 (72643) - https://sketchapp.com -->
    <title>形状</title>
    <desc>Created with Sketch.</desc>
    <g id="首页" stroke="none" stroke-width="1" fill="none" fill-rule="evenodd">
        <g transform="translate(-66.000000, -258.000000)" fill="#828AA4" fill-rule="nonzero" id="首页左菜单">
            <g>
                <path d="M77.8909697,262.375 C75.4100923,263.684199 73.7142857,266.327435 73.7142857,269.375 C73.7142857,270.295418 73.868968,271.178955 74.1532432,272 L67.018315,272 L66.9450549,272 C66.4230769,272 66,271.555503 66,271.007097 L66,270.930128 L66,269.375 L69.7712435,269.375 C70.0562381,269.375 70.2857143,269.178282 70.2857143,268.9375 C70.2857143,268.695144 70.0543875,268.5 69.7712435,268.5 L66,268.5 L66,266.75 L70.6427072,266.75 C70.9179696,266.75 71.1428571,266.554856 71.1428571,266.3125 C71.1428571,266.070144 70.9179696,265.875 70.6427072,265.875 L66,265.875 L66,262.375 L77.8909697,262.375 Z M79.7959374,269.186848 C78.3689487,269.342119 77.1641259,269.871868 76.3096417,270.712161 C76.0960206,267.743737 77.3093882,265.990083 80.0864621,265.460334 L80.0864621,263.25 L84,267.661534 L79.7959374,272 L79.7959374,269.186848 Z M82.2857143,259.166667 L82.283883,259.166667 L82.283883,261.5 L66,261.5 L66,259.166667 C66,258.522482 66.4559927,258 67.0182005,258 L81.2675138,258 C81.8297216,258 82.2857143,258.522482 82.2857143,259.166667 Z" id="形状"></path>
            </g>
        </g>
    </g>
</svg>