<?xml version="1.0" encoding="UTF-8"?>
<svg width="9px" height="14px" viewBox="0 0 9 14" version="1.1" xmlns="http://www.w3.org/2000/svg" xmlns:xlink="http://www.w3.org/1999/xlink">
    <!-- Generator: Sketch 53.2 (72643) - https://sketchapp.com -->
    <title>手机 (2)</title>
    <desc>Created with Sketch.</desc>
    <g id="首页" stroke="none" stroke-width="1" fill="none" fill-rule="evenodd">
        <g transform="translate(-420.000000, -136.000000)" fill="#3674D7" fill-rule="nonzero" id="手机-(2)">
            <g transform="translate(420.000000, 136.000000)">
                <path d="M1.06591494,14 C0.477271907,13.9992267 0.000375170677,13.507945 0,12.9019333 L0,1.09736552 C0,0.492236803 0.478129257,0 1.06591494,0 L7.93408506,0 C8.52187074,0 9,0.492236803 9,1.09736552 L9,12.9019333 C9,13.507062 8.52187074,13.9992988 7.93408506,13.9992988 L1.06591494,14 Z M1.21643711,0.510467795 C0.840278285,0.510467795 0.535341305,0.824402159 0.535341305,1.21165982 L0.535341305,10.8909146 L8.45784774,10.8909146 L8.45784774,1.21165982 C8.45784774,0.824402159 8.15291076,0.510467795 7.77675193,0.510467795 L1.21643711,0.510467795 Z M1.22597245,13.3752379 L7.78015741,13.3752379 C8.15631624,13.3752379 8.46125322,13.0613035 8.46125322,12.6740459 L8.46125322,11.3733347 L0.544876646,11.3733347 L0.544876646,12.6733447 C0.544876646,13.0606023 0.849813626,13.3745367 1.22597245,13.3745367 L1.22597245,13.3752379 Z M6.09580748,3.00891516 L3.52398971,3.00891516 C3.41874857,3.00891516 3.32150176,2.95111307 3.26888119,2.85728238 C3.21626062,2.76345169 3.21626062,2.64784752 3.26888119,2.55401683 C3.32150176,2.46018614 3.41874857,2.40238405 3.52398971,2.40238405 L6.09512638,2.40238405 C6.25762699,2.40238405 6.38935977,2.5380037 6.38935977,2.70529901 C6.38935977,2.87259432 6.25762699,3.00821396 6.09512638,3.00821396 L6.09580748,3.00891516 Z M4.08657484,11.9202644 L4.70637203,11.9202644 L4.70637203,12.5583492 L4.08657484,12.5583492 L4.08657484,11.9202644 Z" id="形状"></path>
            </g>
        </g>
    </g>
</svg>