<?xml version="1.0" encoding="UTF-8"?>
<svg width="18px" height="16px" viewBox="0 0 18 16" version="1.1" xmlns="http://www.w3.org/2000/svg" xmlns:xlink="http://www.w3.org/1999/xlink">
    <!-- Generator: Sketch 53.2 (72643) - https://sketchapp.com -->
    <title>形状</title>
    <desc>Created with Sketch.</desc>
    <g id="首页" stroke="none" stroke-width="1" fill="none" fill-rule="evenodd">
        <g transform="translate(-48.000000, -408.000000)" fill="#62697F" fill-rule="nonzero" id="首页左菜单">
            <g>
                <path d="M65.8159933,412.399723 L64.7977302,411.392015 C64.516083,411.112792 64.0141731,411.157539 63.6765575,411.494039 L56.0161137,419.088542 C55.6766927,419.423251 55.6315569,419.920841 55.9132042,420.200064 L56.9296618,421.209561 C57.211309,421.486994 57.7132189,421.442247 58.0526399,421.105748 L65.7112783,413.513034 C66.0506993,413.176535 66.0976405,412.678946 65.8159933,412.399723 Z M57.7023863,422.145674 L57.7384949,422.176102 L54.5519092,423.84428 L60.9991033,423.84428 C61.479348,423.84428 61.8657102,423.459453 61.8657102,422.985132 L61.8657102,418.098733 L57.9262597,421.986374 C57.8558479,422.05439 57.7782144,422.093767 57.7023863,422.145674 Z M54.9075791,419.7687 C54.9707692,419.60224 55.0592353,419.43936 55.2018643,419.299749 L61.8657102,412.723693 L61.8657102,408.859147 C61.8657102,408.384826 61.4775426,408 60.9991033,408 L48.8666069,408 C48.3881677,408 48,408.384826 48,408.859147 L48,422.983342 C48,423.459453 48.3881677,423.84249 48.8666069,423.84249 L53.1527001,423.84249 L54.8678596,419.732902 L54.9075791,419.7687 Z M50.1665172,409.652357 L59.2658896,409.652357 C59.7461342,409.652357 60.1324964,409.888623 60.1324964,410.182165 C60.1324964,410.475707 59.7443288,410.710182 59.2658896,410.710182 L50.1665172,410.710182 C49.688078,410.710182 49.2999103,410.473917 49.2999103,410.182165 C49.2999103,409.888623 49.688078,409.652357 50.1665172,409.652357 Z M50.1665172,412.482173 L59.2658896,412.482173 C59.7461342,412.482173 60.1324964,412.730968 60.1324964,413.037039 C60.1324964,413.34311 59.7443288,413.591905 59.2658896,413.591905 L50.1665172,413.591905 C49.688078,413.591905 49.2999103,413.34311 49.2999103,413.037039 C49.2999103,412.730968 49.688078,412.482173 50.1665172,412.482173 Z M50.1665172,416.521955 C49.688078,416.521955 49.2999103,416.264211 49.2999103,415.94919 C49.2999103,415.63417 49.688078,415.376425 50.1665172,415.376425 L55.799462,415.376425 C56.2779012,415.376425 56.6660689,415.63238 56.6660689,415.94919 C56.6660689,416.266001 56.2779012,416.521955 55.799462,416.521955 L50.1665172,416.521955 Z M55.0628461,420.26092 L53.4271256,424 L57.06868,422.159993 L55.0628461,420.26092 Z" id="形状"></path>
            </g>
        </g>
    </g>
</svg>