<?xml version="1.0" encoding="UTF-8"?>
<svg width="18px" height="14px" viewBox="0 0 18 14" version="1.1" xmlns="http://www.w3.org/2000/svg" xmlns:xlink="http://www.w3.org/1999/xlink">
    <!-- Generator: Sketch 53.2 (72643) - https://sketchapp.com -->
    <title>形状</title>
    <desc>Created with Sketch.</desc>
    <g id="首页" stroke="none" stroke-width="1" fill="none" fill-rule="evenodd">
        <g transform="translate(-66.000000, -186.000000)" fill="#828AA4" fill-rule="nonzero" id="首页左菜单">
            <g>
                <path d="M83.1428571,190.548457 C82.5915234,190.434937 82.0177611,190.375 81.4285714,190.375 C77.1680891,190.375 73.7142857,193.509007 73.7142857,197.375 C73.7142857,198.303288 73.9134176,199.189372 74.2750343,200 L67.0719105,200 L66.9947947,200 C66.4453441,200 66,199.555503 66,199.007097 L66,198.930128 L66,198.25 L69.7712435,198.25 C70.0562381,198.25 70.2857143,198.053282 70.2857143,197.8125 C70.2857143,197.570144 70.0543875,197.375 69.7712435,197.375 L66,197.375 L66,195.625 L70.6427072,195.625 C70.9179696,195.625 71.1428571,195.429856 71.1428571,195.1875 C71.1428571,194.945144 70.9179696,194.75 70.6427072,194.75 L66,194.75 L66,190.375 L83.1428571,190.375 L83.1428571,190.548457 Z M80.4897768,197.186848 L80.4897768,200 L76.2857143,195.661534 L80.1992522,191.25 L80.1992522,193.460334 C82.976326,193.990083 84.1896937,195.743737 83.9760726,198.712161 C83.1215884,197.871868 81.9167656,197.342119 80.4897768,197.186848 Z M83.1428571,187.166667 L83.1409295,187.166667 L83.1409295,189.5 L66,189.5 L66,187.166667 C66,186.522482 66.4799923,186 67.07179,186 L82.0710671,186 C82.6628649,186 83.1428571,186.522482 83.1428571,187.166667 Z" id="形状"></path>
            </g>
        </g>
    </g>
</svg>