<?xml version="1.0" encoding="UTF-8"?>
<svg width="15px" height="12px" viewBox="0 0 15 12" version="1.1" xmlns="http://www.w3.org/2000/svg" xmlns:xlink="http://www.w3.org/1999/xlink">
    <!-- Generator: Sketch 53.2 (72643) - https://sketchapp.com -->
    <title>形状</title>
    <desc>Created with Sketch.</desc>
    <g id="首页" stroke="none" stroke-width="1" fill="none" fill-rule="evenodd">
        <g transform="translate(-632.000000, -137.000000)" fill="#3674D7" fill-rule="nonzero" id="形状">
            <path d="M646.61635,143.961563 C646.828146,143.961563 647,143.785695 647,143.569488 L647,138.48923 C647,138.175176 646.90376,137.884657 646.741418,137.644591 C646.734739,137.633703 646.733143,137.621143 646.725628,137.610575 C646.712904,137.593685 646.695495,137.584361 646.680878,137.569808 C646.413605,137.225103 646.004986,137 645.540992,137 L633.458988,137 C632.652902,137 632,137.666454 632,138.48923 L632,147.511222 C632,148.334105 632.65292,149 633.458988,149 L645.541015,149 C646.347188,149 647,148.334081 647,147.511222 L647,146.270352 C646.998802,146.05496 646.827787,145.8804 646.61635,145.8804 C646.404974,145.8804 646.23312,146.05496 646.232278,146.270352 L646.232278,147.432901 C646.232278,147.866064 645.887897,148.216921 645.46418,148.216921 L633.535823,148.216921 C633.112127,148.216921 632.767662,147.866086 632.767662,147.432901 L632.767662,138.567698 C632.767662,138.524808 632.773626,138.483977 632.779967,138.442736 L639.492494,144.031499 C639.49283,144.031499 639.493608,144.031927 639.494027,144.032358 C639.553897,144.077926 639.62193,144.097347 639.690808,144.10502 C639.710631,144.108684 639.729993,144.107462 639.750235,144.107914 C639.770036,144.107486 639.78944,144.108687 639.809221,144.10502 C639.878476,144.097368 639.946576,144.077929 640.006002,144.032358 C640.006337,144.031909 640.0072,144.031499 640.007556,144.031499 L646.226734,138.510704 C646.227931,138.529716 646.232299,138.548278 646.232299,138.567698 L646.232299,143.569613 C646.232299,143.785713 646.404135,143.961603 646.616368,143.961603 L646.616368,143.961603 L646.61635,143.961563 Z M633.535802,137.78355 L645.464162,137.78355 C645.565167,137.78355 645.661386,137.804663 645.750084,137.841014 L639.750214,143.192909 L633.317201,137.819986 C633.386939,137.798555 633.459323,137.78355 633.535802,137.78355 L633.535802,137.78355 L633.535802,137.78355 Z"></path>
        </g>
    </g>
</svg>