<?xml version="1.0" encoding="UTF-8"?>
<svg width="18px" height="14px" viewBox="0 0 18 14" version="1.1" xmlns="http://www.w3.org/2000/svg" xmlns:xlink="http://www.w3.org/1999/xlink">
    <!-- Generator: Sketch 53.2 (72643) - https://sketchapp.com -->
    <title>形状</title>
    <desc>Created with Sketch.</desc>
    <g id="首页" stroke="none" stroke-width="1" fill="none" fill-rule="evenodd">
        <g transform="translate(-48.000000, -114.000000)" fill="#FFFFFF" fill-rule="nonzero" id="首页左菜单">
            <g>
                <path d="M66,119.4 C66,118.41 65.2207895,117.6 64.2694737,117.6 L50.5957895,117.6 C50.1055263,117.6 49.7305263,117.21 49.7305263,116.7 C49.7305263,116.19 50.1347368,115.8 50.5957895,115.8 L63.4042105,115.8 C63.8944737,115.8 64.2694737,115.41 64.2694737,114.9 C64.2694737,114.39 63.8944737,114 63.4042105,114 L62.5381579,114 L63.1152632,114 L49.7305263,114 C48.778421,114 48,114.81 48,115.8 L48,126.2 C48,127.19 48.778421,128 49.7305263,128 L64.2694737,128 C65.2207895,128 66,127.19 66,126.2 L66,119.4 Z M59.4996091,121 L62.5003909,121 C63.3500782,121 64,121.433333 64,122 C64,122.566667 63.3500782,123 62.5003909,123 L59.4996091,123 C58.6499218,123 58,122.566667 58,122 C58,121.433333 58.6499218,121 59.4996091,121 Z" id="形状"></path>
            </g>
        </g>
    </g>
</svg>