<?xml version="1.0" encoding="UTF-8"?>
<svg width="30px" height="30px" viewBox="0 0 30 30" version="1.1" xmlns="http://www.w3.org/2000/svg" xmlns:xlink="http://www.w3.org/1999/xlink">
    <!-- Generator: Sketch 53.2 (72643) - https://sketchapp.com -->
    <title>形状</title>
    <desc>Created with Sketch.</desc>
    <g id="登录" stroke="none" stroke-width="1" fill="none" fill-rule="evenodd">
        <g id="切图" transform="translate(-156.000000, -198.000000)" fill="#FFFFFF" fill-rule="nonzero">
            <path d="M182.428571,228 L178.857143,228 L178.857143,224.428571 L176,224.428571 L176,218 L179.571429,218 L179.571429,224.428571 L182.428571,224.428571 L182.428571,220.857143 L186,220.857143 L186,228 L182.428571,228 L182.428571,228 Z M172,228 L172,225 L175,225 L175,228 L172,228 Z M172,214 L175,214 L175,217 L172,217 L172,214 Z M183,214 L186,214 L186,217 L183,217 L183,214 Z M172,198 L186,198 L186,212 L172,212 L172,198 Z M174,210 L184,210 L184,200 L174,200 L174,210 Z M178,203 L181,203 L181,206 L178,206 L178,203 Z M156,214 L170,214 L170,228 L156,228 L156,214 Z M158,226 L168,226 L168,216 L158,216 L158,226 Z M161,220 L164,220 L164,223 L161,223 L161,220 Z M156,198 L170,198 L170,212 L156,212 L156,198 Z M158,210 L168,210 L168,200 L158,200 L158,210 Z M161,203 L164,203 L164,206 L161,206 L161,203 Z" id="形状"></path>
        </g>
    </g>
</svg>