<?xml version="1.0" encoding="UTF-8"?>
<svg width="19px" height="16px" viewBox="0 0 19 16" version="1.1" xmlns="http://www.w3.org/2000/svg" xmlns:xlink="http://www.w3.org/1999/xlink">
    <title>形状备份 8</title>
    <g id="登录" stroke="none" stroke-width="1" fill="none" fill-rule="evenodd">
        <g id="切图" transform="translate(-314.000000, -153.000000)" fill="#828AA4" fill-rule="nonzero">
            <path d="M332.388868,157.190865 L331.370605,156.183157 C331.088957,155.903934 330.587047,155.948682 330.249432,156.285181 L322.588988,163.879684 C322.249567,164.214394 322.204431,164.711983 322.486079,164.991206 L323.502536,166.000704 C323.784183,166.278137 324.286093,166.23339 324.625514,165.89689 L332.284153,158.304177 C332.623574,157.967677 332.670515,157.470088 332.388868,157.190865 Z M323.988342,167.701172 L321.643188,168.84428 L326.999103,168.84428 C327.479348,168.84428 327.86571,168.459453 327.86571,167.985132 L327.86571,163.504333 L323.988342,167.701172 Z M327.86571,157.723693 L327.86571,153.859147 C327.86571,153.384826 327.477543,153 326.999103,153 L314.866607,153 C314.388168,153 314,153.384826 314,153.859147 L314,167.983342 C314,168.459453 314.388168,168.84249 314.866607,168.84249 L319.1527,168.84249 L320.86786,164.732902 L327.86571,157.723693 Z M316.166517,154.652357 L325.26589,154.652357 C325.746134,154.652357 326.132496,154.987383 326.132496,155.403626 C326.132496,155.81987 325.744329,156.152357 325.26589,156.152357 L316.166517,156.152357 C315.688078,156.152357 315.29991,155.817332 315.29991,155.403626 C315.29991,154.987383 315.688078,154.652357 316.166517,154.652357 Z M316.166517,157.482173 L325.26589,157.482173 C325.746134,157.482173 326.132496,157.818464 326.132496,158.232173 C326.132496,158.645883 325.744329,158.982173 325.26589,158.982173 L316.166517,158.982173 C315.688078,158.982173 315.29991,158.645883 315.29991,158.232173 C315.29991,157.818464 315.688078,157.482173 316.166517,157.482173 Z M316.166517,161.876425 C315.688078,161.876425 315.29991,161.538925 315.29991,161.126425 C315.29991,160.713925 315.688078,160.376425 316.166517,160.376425 L321.799462,160.376425 C322.277901,160.376425 322.666069,160.711582 322.666069,161.126425 C322.666069,161.541269 322.277901,161.876425 321.799462,161.876425 L316.166517,161.876425 Z M321.635721,165 L319.929001,168.817947 L323.641554,166.899073 L321.635721,165 Z" id="形状备份-8"></path>
        </g>
    </g>
</svg>