<?xml version="1.0" encoding="UTF-8"?>
<svg width="20px" height="15px" viewBox="0 0 20 15" version="1.1" xmlns="http://www.w3.org/2000/svg" xmlns:xlink="http://www.w3.org/1999/xlink">
    <title>分组 2 copy 6</title>
    <g id="首页、usd/usdt/btc/eth" stroke="none" stroke-width="1" fill="none" fill-rule="evenodd">
        <g id="BTC-账户充值" transform="translate(-1287.000000, -475.000000)" fill="#3674D7" fill-rule="nonzero">
            <g id="编组-4" transform="translate(493.000000, 464.000000)">
                <g id="矩形-copy-7" transform="translate(788.000000, 1.000000)">
                    <g id="分组-2-copy-6" transform="translate(6.000000, 10.000000)">
                        <path d="M16.7403315,11 C16.6298343,11 16.4088398,10.8823529 16.2983425,10.8823529 L13.6464088,8.05882353 C13.4254144,7.82352941 13.4254144,7.47058824 13.6464088,7.23529412 C13.8674033,7 14.198895,7 14.4198895,7.23529412 L16.7403315,9.70588235 L19.0607735,7.23529412 C19.281768,7 19.6132597,7 19.8342541,7.23529412 C20.0552486,7.47058824 20.0552486,7.82352941 19.8342541,8.05882353 L17.1823204,10.8823529 C16.961326,10.8823529 16.8508287,11 16.7403315,11 Z M5.91160221,8.05882353 C5.80110497,8.05882353 5.5801105,7.94117647 5.46961326,7.94117647 L3.25966851,5.47058824 L0.939226519,7.94117647 C0.718232044,8.17647059 0.386740331,8.17647059 0.165745856,7.94117647 C-0.0552486188,7.70588235 -0.0552486188,7.35294118 0.165745856,7.11764706 L2.81767956,4.17647059 C3.03867403,3.94117647 3.37016575,3.94117647 3.59116022,4.17647059 L6.24309392,7.11764706 C6.4640884,7.35294118 6.4640884,7.70588235 6.24309392,7.94117647 C6.24309392,8.05882353 6.13259669,8.05882353 5.91160221,8.05882353 Z" id="形状"></path>
                        <path d="M8.9377456,15 C7.1270157,15 5.3162858,14.2039051 4.03812352,12.8391709 C2.1208801,10.7920696 1.48179896,7.72141777 2.44042067,4.99194943 C2.44042067,4.76449373 2.75996124,4.53703804 3.07950181,4.65076589 C3.29252886,4.76449373 3.5055559,5.10567728 3.39904238,5.44686082 C2.65344772,7.72141777 3.18601533,10.3371583 4.78371819,12.043076 C6.59444809,14.0901772 9.47031322,14.5450886 11.8136107,13.1803544 C12.0266378,13.0666266 12.3461784,13.1803544 12.5592054,13.4078101 C12.6657189,13.6352658 12.5592054,13.9764494 12.3461784,14.2039051 C11.1745296,14.7725443 10.1093944,15 8.9377456,15 L8.9377456,15 Z M16.0741517,10.4508861 L15.8611246,10.4508861 C15.5415841,10.3371583 15.4350705,9.99597471 15.5415841,9.76851902 C16.2871787,7.49396207 15.7546111,4.87822158 14.1569083,3.17230387 C12.3461784,1.23893046 9.47031322,0.670291227 7.1270157,2.0350254 C6.91398866,2.14875324 6.59444809,2.0350254 6.38142104,1.8075697 C6.38142104,1.35265831 6.48793456,1.01147477 6.70096161,0.897746922 C9.3637997,-0.694442941 12.7722325,-0.125803704 15.0090164,2.26248109 C16.9262599,4.30958234 17.4588275,7.38023422 16.6067193,10.1097026 C16.5002058,10.2234304 16.2871787,10.4508861 16.0741517,10.4508861 L16.0741517,10.4508861 Z" id="形状"></path>
                    </g>
                </g>
            </g>
        </g>
    </g>
</svg>