<?xml version="1.0" encoding="UTF-8"?>
<svg width="24px" height="27px" viewBox="0 0 24 27" version="1.1" xmlns="http://www.w3.org/2000/svg" xmlns:xlink="http://www.w3.org/1999/xlink">
    <!-- Generator: Sketch 53.2 (72643) - https://sketchapp.com -->
    <title>形状</title>
    <desc>Created with Sketch.</desc>
    <defs>
        <filter x="-8.2%" y="-27.1%" width="116.4%" height="154.2%" filterUnits="objectBoundingBox" id="filter-1">
            <feOffset dx="0" dy="2" in="SourceAlpha" result="shadowOffsetOuter1"></feOffset>
            <feGaussianBlur stdDeviation="2" in="shadowOffsetOuter1" result="shadowBlurOuter1"></feGaussianBlur>
            <feColorMatrix values="0 0 0 0 0   0 0 0 0 0   0 0 0 0 0  0 0 0 0.5 0" type="matrix" in="shadowBlurOuter1" result="shadowMatrixOuter1"></feColorMatrix>
            <feMerge>
                <feMergeNode in="shadowMatrixOuter1"></feMergeNode>
                <feMergeNode in="SourceGraphic"></feMergeNode>
            </feMerge>
        </filter>
    </defs>
    <g id="登录" stroke="none" stroke-width="1" fill="none" fill-rule="evenodd">
        <g id="登录1" transform="translate(-577.000000, -520.000000)" fill="#FFFFFF" fill-rule="nonzero">
            <g id="分组-4-copy" transform="translate(361.000000, 507.000000)">
                <g id="分组-8" filter="url(#filter-1)" transform="translate(190.000000, 0.000000)">
                    <path d="M32.9099304,29.0967164 C32.9099304,29.7389586 33.4264094,30.2618855 34.0613202,30.2618855 L34.8925661,30.2618855 C34.8646919,30.358611 34.8490543,30.4618522 34.8490543,30.5675204 L34.8490543,32.896589 C34.8490543,33.5055812 35.3377922,34 35.9400787,34 C36.5428972,34 37.0309701,33.5055812 37.0309701,32.896589 L37.0309701,30.5675204 C37.0309701,30.4612735 37.0146674,30.358555 36.9874583,30.2618855 L39.0136247,30.2618855 C38.9858836,30.358611 38.970113,30.4618522 38.970113,30.5675204 L38.970113,32.896589 C38.970113,33.5055812 39.4588509,34 40.0611184,34 C40.6634049,34 41.1521428,33.5055812 41.1521428,32.896589 L41.1521428,30.5675204 C41.1521428,30.4612735 41.1365051,30.358555 41.108061,30.2618855 L41.9392308,30.2618855 C42.5748066,30.2618855 43.0907156,29.7389213 43.0907156,29.0967164 L43.0907156,21.0065477 L32.9087523,21.0065477 L32.9087523,29.0967164 L32.9099304,29.0967164 L32.9099304,29.0967164 Z M31.0910054,21.006529 C30.4881109,21.006529 30,21.5003878 30,22.10938 L30,26.8281177 C30,27.4370912 30.4880729,27.9309686 31.0910054,27.9309686 C31.6932919,27.9309686 32.1820298,27.4371099 32.1820298,26.8281177 L32.1820298,22.10938 C32.1820298,21.499753 31.6932919,21.005969 31.0910054,21.005969 L31.0910054,21.0065477 L31.0910054,21.006529 Z M44.9095266,21.006529 C44.3072591,21.006529 43.8191673,21.5003878 43.8191673,22.10938 L43.8191673,26.8281177 C43.8191673,27.4370912 44.3072401,27.9309686 44.9095266,27.9309686 C45.5118131,27.9309686 46,27.4371099 46,26.8281177 L46,22.10938 C46,21.499753 45.5118321,21.005969 44.9095266,21.005969 L44.9095266,21.0065477 L44.9095266,21.006529 Z M40.5039504,16.5910927 L41.3641724,15.2859226 C41.4197496,15.2016121 41.3967967,15.0870387 41.3140103,15.0312548 C41.2294949,14.9742762 41.1171243,14.9974821 41.060863,15.0823153 L40.5751653,15.8194722 L40.3704699,16.1292891 L40.1632285,16.4439413 C39.5059348,16.1863611 38.773189,16.0421035 37.9999335,16.0421035 C37.226754,16.0421035 36.4939322,16.1869399 35.8372655,16.4439413 L35.4258988,15.8194536 L34.939004,15.0822967 C34.8834077,14.9979675 34.7705051,14.9748736 34.6865027,15.0312362 C34.6037543,15.0876734 34.5807824,15.2015934 34.6363406,15.2859039 L35.4965816,16.591074 C33.9537189,17.3176081 32.9092464,18.6952523 32.9092464,20.2710897 L43.0906776,20.2710897 C43.0906776,18.695271 42.0467752,17.3181868 40.5039124,16.5917274 L40.5039124,16.591074 L40.5039504,16.5910927 Z M35.8185877,18.7997256 C35.5171975,18.7997256 35.2730945,18.5521895 35.2730945,18.2483655 C35.2730945,17.9444108 35.5171975,17.6975095 35.8185877,17.6975095 C36.119465,17.6975095 36.3640809,17.9438694 36.3640809,18.2483655 C36.3640809,18.5528616 36.119446,18.7997256 35.8185877,18.7997256 L35.8185877,18.7997256 Z M40.1825333,18.7997256 C39.881086,18.7997256 39.6370971,18.5521895 39.6370971,18.2483655 C39.6370971,17.9444108 39.881086,17.6975095 40.1825333,17.6975095 C40.4840566,17.6975095 40.7274375,17.9438694 40.7274375,18.2483655 C40.7274375,18.5528616 40.4833535,18.7997256 40.1825333,18.7997256 L40.1825333,18.7997256 Z" id="形状"></path>
                </g>
            </g>
        </g>
    </g>
</svg>