<?xml version="1.0" encoding="UTF-8"?>
<svg width="20px" height="23px" viewBox="0 0 20 23" version="1.1" xmlns="http://www.w3.org/2000/svg" xmlns:xlink="http://www.w3.org/1999/xlink">
    <title>形状</title>
    <g id="C端展示页面" stroke="none" stroke-width="1" fill="none" fill-rule="evenodd">
        <g id="banner-1" transform="translate(-973.000000, -709.000000)" fill="#FFFFFF" fill-rule="nonzero">
            <g id="编组-4" transform="translate(360.000000, 498.000000)">
                <g id="编组-6" transform="translate(613.000000, 211.000000)">
                    <g id="形状">
                        <path d="M3.63740436,17.0644462 C3.63740436,17.8418973 4.28300159,18.474914 5.07663825,18.474914 L6.11569306,18.474914 C6.08085047,18.5920028 6.06130347,18.716979 6.06130347,18.8448931 L6.06130347,21.6642919 C6.06130347,22.401493 6.67222438,23 7.42508072,23 C8.17860209,23 8.78869172,22.401493 8.78869172,21.6642919 L8.78869172,18.8448931 C8.78869172,18.7162784 8.76831344,18.591935 8.73430213,18.474914 L11.2670042,18.474914 C11.2323278,18.5920028 11.2126146,18.716979 11.2126146,18.8448931 L11.2126146,21.6642919 C11.2126146,22.401493 11.8235355,23 12.5763681,23 C13.3292244,23 13.9401453,22.401493 13.9401453,21.6642919 L13.9401453,18.8448931 C13.9401453,18.7162784 13.9205983,18.591935 13.8850432,18.474914 L14.924003,18.474914 C15.718471,18.474914 16.3633557,17.8418521 16.3633557,17.0644462 L16.3633557,7.27108407 L3.6359318,7.27108407 L3.6359318,17.0644462 L3.63740436,17.0644462 L3.63740436,17.0644462 Z M1.3637535,7.27106148 C0.610137126,7.27106148 0,7.86889045 0,8.60609158 L0,14.3182477 C0,15.0554262 0.610089624,15.6532778 1.3637535,15.6532778 C2.11660984,15.6532778 2.72753075,15.0554488 2.72753075,14.3182477 L2.72753075,8.60609158 C2.72753075,7.86812207 2.11660984,7.27038349 1.3637535,7.27038349 L1.3637535,7.27108407 L1.3637535,7.27106148 Z M18.6369115,7.27106148 C17.8840789,7.27106148 17.2739656,7.86889045 17.2739656,8.60609158 L17.2739656,14.3182477 C17.2739656,15.0554262 17.8840552,15.6532778 18.6369115,15.6532778 C19.3897679,15.6532778 20,15.0554488 20,14.3182477 L20,8.60609158 C20,7.86812207 19.3897916,7.27038349 18.6369115,7.27038349 L18.6369115,7.27108407 L18.6369115,7.27106148 Z M13.1299068,1.92605954 L14.2051817,0.34611685 C14.2746531,0.244056756 14.245962,0.105362603 14.1424793,0.0378347989 C14.0368353,-0.0311393834 13.8963724,-0.00304799793 13.826046,0.0996448869 L13.2189252,0.991992721 L12.9630566,1.36703419 L12.7040055,1.74792897 C11.8823902,1.43612137 10.9664602,1.26149374 9.99989312,1.26149374 C9.03342109,1.26149374 8.117396,1.43682196 7.29656455,1.74792897 L6.78235735,0.991970121 L6.17374028,0.0996222872 C6.10424512,-0.0024604066 5.96311721,-0.0304161941 5.85811444,0.0378121992 C5.75467923,0.106130991 5.72596438,0.244034156 5.79541204,0.346094251 L6.87071073,1.92603694 C4.94213685,2.80552556 3.63654933,4.47320016 3.63654933,6.38079281 L16.3633082,6.38079281 C16.3633082,4.47322276 15.0584332,2.80622615 13.1298593,1.92682793 L13.1298593,1.92603694 L13.1299068,1.92605954 Z M7.27321741,4.59966789 C6.89648047,4.59966789 6.59135253,4.30001891 6.59135253,3.93223194 C6.59135253,3.56428677 6.89648047,3.26540618 7.27321741,3.26540618 C7.64931306,3.26540618 7.95508228,3.56363138 7.95508228,3.93223194 C7.95508228,4.3008325 7.64928931,4.59966789 7.27321741,4.59966789 L7.27321741,4.59966789 Z M12.7281364,4.59966789 C12.3513282,4.59966789 12.0463428,4.30001891 12.0463428,3.93223194 C12.0463428,3.56428677 12.3513282,3.26540618 12.7281364,3.26540618 C13.1050396,3.26540618 13.409265,3.56363138 13.409265,3.93223194 C13.409265,4.3008325 13.1041608,4.59966789 12.7281364,4.59966789 L12.7281364,4.59966789 Z"></path>
                    </g>
                </g>
            </g>
        </g>
    </g>
</svg>