<?xml version="1.0" encoding="UTF-8"?>
<svg width="17px" height="18px" viewBox="0 0 17 18" version="1.1" xmlns="http://www.w3.org/2000/svg" xmlns:xlink="http://www.w3.org/1999/xlink">
    <title>安全</title>
    <g id="登录" stroke="none" stroke-width="1" fill="none" fill-rule="evenodd">
        <g id="切图" transform="translate(-379.000000, -153.000000)" fill="#828AA4" fill-rule="nonzero">
            <g id="安全" transform="translate(379.000000, 153.000000)">
                <g id="形状">
                    <path d="M8.5,0 L17,3.26049107 L17,8.20044643 C17,9.33348214 16.7852865,10.4323661 16.3558594,11.4991071 C15.9264323,12.5658482 15.3398438,13.5301339 14.5960937,14.3879464 C13.8235677,15.2859375 12.9204427,16.0473214 11.8867188,16.6720982 C10.8529948,17.296875 9.72408854,17.7388393 8.5,18 C7.27591146,17.7388393 6.14700521,17.296875 5.11328125,16.6720982 C4.07955729,16.0473214 3.17643229,15.2859375 2.40390625,14.3879464 C1.66015625,13.528125 1.07356771,12.5658482 0.644140625,11.4991071 C0.214713542,10.4323661 0,9.33147321 0,8.20044643 L0,3.26049107 L8.5,0 Z M8.5,8.95045112 L8.5,1.69811321 L1.82142857,4.27263249 L1.82142857,8.95045112 L8.5,8.95045112 L8.5,16.3018868 C9.39538855,16.0794224 10.2193246,15.7295467 10.9695754,15.2502371 C11.7198261,14.77295 12.3807613,14.2046547 12.952381,13.549396 C13.5396308,12.9082942 14.0241677,12.1964083 14.4082247,11.417783 C14.7900487,10.6391578 15.046831,9.8160397 15.1785714,8.95045112 L8.5,8.95045112 Z"></path>
                </g>
            </g>
        </g>
    </g>
</svg>