<?xml version="1.0" encoding="UTF-8"?>
<svg width="20px" height="15px" viewBox="0 0 20 15" version="1.1" xmlns="http://www.w3.org/2000/svg" xmlns:xlink="http://www.w3.org/1999/xlink">
    <title>分组 8</title>
    <g id="登录" stroke="none" stroke-width="1" fill="none" fill-rule="evenodd">
        <g id="切图" transform="translate(-276.000000, -154.000000)" fill="#828AA4" fill-rule="nonzero">
            <g id="分组-8" transform="translate(276.000000, 154.000000)">
                <path d="M17.0646973,7.5 L17.2880846,8.03881825 C17.4986261,8.54699221 17.2461833,9.13129724 16.7272504,9.33744481 L16.7272504,9.33744481 L5.16833496,14.8193359 C4.64940207,15.0255197 4.05265512,14.7785553 3.84218751,14.2700374 L3.84218751,14.2700374 L3.61907743,13.7312373 L17.0646973,7.5 Z M20,12 L20,12.7365524 C20,13.4316183 19.5547824,14 19.0106076,14 L19.0106076,14 L9,14 L12.861935,12 L20,12 Z M13.086941,0.235345211 C13.5838604,0.0319736136 14.1549348,0.275887366 14.3563843,0.777092014 L14.3563843,0.777092014 L16.5741577,6.1362915 L2.92858845,12 L0.644165039,6.37531866 C0.442768594,5.87388183 0.684373573,5.29736164 1.18102765,5.09395432 L1.18102765,5.09395432 Z M19.0332657,5 C19.5649783,5 20,5.44454941 20,5.98796731 L20,5.98796731 L20,11 L15.7799072,11 C16.2614494,10.586625 18.1882324,9.65698242 18.3739014,8.82849121 C18.4976807,8.27616374 18.0397135,7 17,5 L17,5 Z" id="形状结合"></path>
            </g>
        </g>
    </g>
</svg>