<?xml version="1.0" encoding="UTF-8"?>
<svg width="128px" height="32px" viewBox="0 0 128 32" version="1.1" xmlns="http://www.w3.org/2000/svg" xmlns:xlink="http://www.w3.org/1999/xlink">
    <!-- Generator: Sketch 53.2 (72643) - https://sketchapp.com -->
    <title>logo</title>
    <desc>Created with Sketch.</desc>
    <defs>
        <polygon id="path-1" points="0 0.00451939843 30.183435 0.00451939843 30.183435 31.9545455 0 31.9545455"></polygon>
    </defs>
    <g id="首页" stroke="none" stroke-width="1" fill="none" fill-rule="evenodd">
        <g id="1-3转账" transform="translate(-561.000000, -251.000000)">
            <g id="分组-7" transform="translate(530.000000, 232.000000)">
                <g id="分组-17">
                    <g id="logo" transform="translate(31.000000, 19.000000)">
                        <g id="分组">
                            <polygon id="Fill-1" fill="#1C2F62" points="36.9247263 22.6666667 32 5.33333333 36.631345 5.33333333 39.1486191 17.6299506 41.5560713 5.33333333 46.4686387 5.33333333 48.8392221 17.6299506 51.368655 5.33333333 56 5.33333333 51.038405 22.6666667 46.541984 22.6666667 43.9878412 10.2051397 41.4336983 22.6666667"></polygon>
                            <path d="M57.3333333,22.6666667 L62.6666667,22.6666667 L62.6666667,9.87532011 L57.3333333,9.87532011 L57.3333333,22.6666667 Z M57.3333333,8.71088678 L62.6666667,8.71088678 L62.6666667,5.33333333 L57.3333333,5.33333333 L57.3333333,8.71088678 Z" id="Fill-2" fill="#1C2F62"></path>
                            <polygon id="Fill-3" fill="#1C2F62" points="64 22.6666667 64 5.33333333 67.7973185 5.33333333 67.7973185 14.2763981 71.3560857 9.87532011 75.891346 9.87532011 71.800801 14.7587398 76 22.6666667 71.7140867 22.6666667 69.2185269 17.6067238 67.7973185 19.2186588 67.7973185 22.6666667"></polygon>
                            <path d="M77.3333333,22.6666667 L82.6666667,22.6666667 L82.6666667,9.87532011 L77.3333333,9.87532011 L77.3333333,22.6666667 Z M77.3333333,8.71088678 L82.6666667,8.71088678 L82.6666667,5.33333333 L77.3333333,5.33333333 L77.3333333,8.71088678 Z" id="Fill-4" fill="#1C2F62"></path>
                            <g>
                                <path d="M90.6005929,13.9946907 L93.5351898,13.9946907 C94.3331711,13.9946907 94.9224264,13.8276452 95.3018254,13.492795 C95.6812245,13.1579448 95.8711124,12.6408631 95.8711124,11.9404111 C95.8711124,11.263877 95.6733125,10.7578052 95.2784662,10.422955 C94.8828664,10.0884844 94.2864526,9.9210593 93.4880946,9.9210593 L90.6005929,9.9210593 L90.6005929,13.9946907 Z M86.1517907,23.4927437 L86.1517907,6.49321051 L94.0634097,6.49321051 C96.0666517,6.49321051 97.5929133,6.94916869 98.6414412,7.86108505 C99.689969,8.77262176 100.214421,10.0903827 100.214421,11.8136084 C100.214421,13.6218756 99.6975042,15.0083529 98.6648004,15.9737997 C97.6317198,16.9396262 96.1450181,17.4221598 94.2043186,17.4221598 L90.6005929,17.4221598 L90.6005929,23.4927437 L86.1517907,23.4927437 Z" id="Fill-5" fill="#1C2F62"></path>
                                <path d="M109.088403,17.5839282 C108.767402,17.7836234 108.203766,17.968892 107.39825,18.1378357 C107.006794,18.2145248 106.709529,18.280204 106.506078,18.3341141 C106.004985,18.4723063 105.650829,18.6496023 105.44361,18.8648631 C105.236014,19.080124 105.132782,19.368657 105.132782,19.7300827 C105.132782,20.1765496 105.27369,20.536077 105.555131,20.8094241 C105.836949,21.0827713 106.208436,21.2190652 106.670346,21.2190652 C107.382426,21.2190652 107.963392,21.017092 108.413623,20.6131457 C108.863099,20.2091994 109.088403,19.6803487 109.088403,19.0265935 L109.088403,17.5839282 Z M113.689793,23.492402 L109.428619,23.492402 C109.3819,23.2923271 109.340833,23.0846593 109.305417,22.8693984 C109.270379,22.6537579 109.237224,22.4309041 109.205952,22.2000776 C108.618958,22.7771437 107.99504,23.2042486 107.333823,23.4810126 C106.67223,23.7581562 105.94621,23.8963483 105.156141,23.8963483 C103.927521,23.8963483 102.955476,23.5633964 102.239252,22.8982517 C101.523028,22.2327274 101.165104,21.3344784 101.165104,20.2035047 C101.165104,19.1647857 101.445038,18.3204468 102.004152,17.6704881 C102.56402,17.0205294 103.410981,16.5641915 104.545787,16.3029932 C105.171588,16.1644214 105.966178,16.0140805 106.928805,15.8527297 C108.368411,15.6219033 109.088403,15.2832566 109.088403,14.8371693 L109.088403,14.5372467 C109.088403,14.1754414 108.949378,13.9005757 108.672081,13.7118903 C108.393654,13.5235845 107.9811,13.4294316 107.433289,13.4294316 C106.838382,13.4294316 106.367053,13.5486413 106.018925,13.7870607 C105.670797,14.0254802 105.453783,14.3755164 105.367504,14.8371693 L101.517376,14.8371693 C101.720451,13.421459 102.317241,12.367554 103.307371,11.6754543 C104.297124,10.9825952 105.703952,10.6363556 107.527102,10.6363556 C108.661908,10.6363556 109.618506,10.7711309 110.397273,11.0406815 C111.175663,11.3098525 111.784133,11.7175953 112.222307,12.2635302 C112.52786,12.656087 112.742614,13.1234347 112.868076,13.6659528 C112.993161,14.2080912 113.055703,15.0793852 113.055703,16.279455 L113.055703,21.0345559 C113.055703,21.604029 113.108827,22.0520146 113.21432,22.3788922 C113.319813,22.7057698 113.47843,22.919512 113.689793,23.0193597 L113.689793,23.492402 Z" id="Fill-7" fill="#1C2F62"></path>
                                <path d="M122.892462,24.8888262 C122.461823,26.0581444 122.094104,26.8698335 121.788927,27.3238934 C121.48375,27.7775737 121.131478,28.0930618 120.732864,28.2699782 C120.435222,28.3929844 120.073531,28.4818222 119.647036,28.5353527 C119.220165,28.5892628 118.467019,28.6162178 117.38722,28.6162178 L116.283685,28.6162178 L116.283685,25.3618685 L117.093722,25.3618685 C117.868344,25.3618685 118.398448,25.2658174 118.68441,25.0733355 C118.969996,24.8808535 119.112788,24.5501795 119.112788,24.0809336 C119.112788,23.7654454 118.921017,23.1234594 118.537473,22.1538364 L118.490378,22.0498126 L114.194541,10.9477435 L118.690062,10.9477435 L121.084759,19.4997118 L123.537855,10.9477435 L127.986657,10.9477435 L122.892462,24.8888262 Z" id="Fill-9" fill="#1C2F62"></path>
                                <g>
                                    <mask id="mask-2" fill="white">
                                        <use xlink:href="#path-1"></use>
                                    </mask>
                                    <g id="Clip-12"></g>
                                    <path d="M12.4142228,14.7500778 L10.6166927,14.7891817 L12.7062131,12.4873711 L12.4142228,14.7500778 Z M30.0809559,15.0021646 C29.3737741,14.9744503 28.6594339,14.8347395 27.9612945,14.5678464 C27.7521918,14.4877405 27.5498707,14.3977638 27.3539546,14.2994347 C28.241982,14.54241 29.1443263,14.5906253 30.0135155,14.4691377 C29.8967194,13.6893392 29.7211484,12.9289027 29.490947,12.192384 C28.1963938,12.5298918 26.7891888,12.4824357 25.4437728,11.967632 C25.2350468,11.8875261 25.0327258,11.797929 24.8364329,11.6995999 C26.3306699,12.1084817 27.8659738,11.9683913 29.2125201,11.3879083 C28.9062129,10.5701448 28.5309582,9.78654974 28.0954217,9.04281779 C26.5186739,9.81388446 24.6427774,9.9551138 22.8746347,9.27820003 C22.6689229,9.19923309 22.4692391,9.11077492 22.2759604,9.01396449 C24.1220927,9.51889736 26.0326513,9.17531522 27.5592898,8.18936735 C24.8390703,4.17837803 20.2659367,1.53981905 15.0914915,1.53981905 C13.1560666,1.53981905 11.3065434,1.91301379 9.604334,2.58499212 L11.1509408,4.31960738 C12.3942544,3.91831862 13.7178183,3.70002058 15.0914915,3.70002058 C17.3814491,3.70002058 19.5327584,4.30442143 21.400743,5.35946537 C20.8762907,5.39894885 20.363518,5.4615909 19.9358935,5.54625257 C18.897915,5.75240186 17.9763558,6.24100983 17.9763558,6.24100983 C17.9763558,6.24100983 18.0486941,7.15558373 17.6497034,8.06977798 C17.250336,8.98397223 16.4881471,9.16696294 16.4881471,9.16696294 C16.4881471,9.16696294 16.6075806,9.07281005 16.8875145,8.2186003 C17.1685787,7.35945512 16.821958,6.85452225 16.629056,6.59598144 C16.227428,6.05953772 15.1453684,4.8879416 15.1453684,4.8879416 L15.1815375,7.630904 L13.8022129,8.21632241 L10.9700952,5.03600462 L6.49529642,0.00451939843 L9.43140038,5.68748192 L11.6245303,9.93499241 L9.33796348,12.6050623 L9.41067849,14.6164415 L6.54314516,20.6877847 C6.54314516,20.6877847 5.96255537,21.4558142 5.81750212,22.1137455 C5.6720721,22.7720565 6.18032364,23.4671934 6.18032364,23.4671934 C6.18032364,23.4671934 6.14415452,24.3813876 6.50697604,24.747369 C6.87017432,25.1129708 9.48301674,25.4785726 10.7896263,25.1129708 C12.0966127,24.747369 11.7699603,23.9793396 12.3140042,22.8088824 C12.8588016,21.6384252 14.2015803,20.943668 14.9272234,20.4683477 C15.6532432,19.9926478 18.5931147,19.5173275 19.4641878,18.749298 C20.3352609,17.9812686 20.1536617,15.6768005 20.1536617,15.6768005 C20.1536617,15.6768005 20.589575,18.0177148 20.1902076,19.5173275 C19.7908402,21.0165605 18.6658297,20.7975032 18.6658297,20.7975032 C18.6658297,20.7975032 19.5708114,23.1889108 19.688361,25.3305096 C19.7098364,25.7291408 19.7618295,26.5400706 19.2716626,27.7298898 C18.932577,28.5525887 18.4152832,29.1175061 17.8173624,29.5009513 C16.9380006,29.6919147 16.026614,29.7944199 15.0914915,29.7944199 C7.95185717,29.7944199 2.14369874,23.9413747 2.14369874,16.7470304 C2.14369874,11.9315653 4.74787564,7.71974181 8.61005987,5.459313 L7.61126459,3.54778142 C3.06902549,6.1715341 -7.53523408e-05,11.1035513 -7.53523408e-05,16.7470304 C-7.53523408e-05,25.1327125 6.76995571,31.9546214 15.0914915,31.9546214 C23.4130272,31.9546214 30.183435,25.1327125 30.183435,16.7470304 C30.183435,16.1566765 30.1461356,15.5750546 30.0809559,15.0021646 L30.0809559,15.0021646 Z" id="Fill-11" fill="#1C2F62" mask="url(#mask-2)"></path>
                                </g>
                            </g>
                        </g>
                    </g>
                </g>
            </g>
        </g>
    </g>
</svg>