<?xml version="1.0" encoding="UTF-8"?>
<svg width="21px" height="22px" viewBox="0 0 21 22" version="1.1" xmlns="http://www.w3.org/2000/svg" xmlns:xlink="http://www.w3.org/1999/xlink">
    <!-- Generator: Sketch 53.2 (72643) - https://sketchapp.com -->
    <title>扫一扫 copy</title>
    <desc>Created with Sketch.</desc>
    <g id="首页" stroke="none" stroke-width="1" fill="none" fill-rule="evenodd">
        <g id="1-3转账" transform="translate(-669.000000, -680.000000)" fill="#666666" fill-rule="nonzero">
            <g id="分组-7" transform="translate(530.000000, 232.000000)">
                <g id="分组-17">
                    <g id="扫一扫-copy" transform="translate(139.000000, 448.000000)">
                        <path d="M19.0033956,0 L15.5367637,0 C14.988246,0 14.5384615,0.452215323 14.5384615,1.00369744 C14.5384616,1.55517956 14.988246,2.00739489 15.5367637,2.00739487 L18.0050934,2.00739487 C18.5536111,2.00739487 19.0033956,2.45961019 19.0033956,3.01109231 L19.0033956,5.51482108 C19.0033956,6.06630317 19.4531801,6.51851852 20.0016978,6.51851852 C20.5502155,6.51851852 21,6.06630317 21,5.51482108 L21,2.00739487 C21,0.893401006 20.1114013,0 19.0033956,0 Z M0.998302216,6.51851852 C1.5468199,6.51851852 1.99660443,6.0663032 1.99660441,5.51482108 L1.99660441,3.00006267 C1.99660441,2.44858057 2.44638892,1.99636523 2.99490663,1.99636523 L5.46323627,1.99636523 C6.01175396,1.99636523 6.46153848,1.5441499 6.46153846,0.992667804 C6.46153844,0.441185705 6.01175396,0 5.45226592,0 L1.99660441,0 C0.888598661,0 0,0.893401006 0,2.00739487 L0,5.51482108 C0,6.06630317 0.449784506,6.51851852 0.998302216,6.51851852 Z M5.47420662,20.0011357 L2.99490663,20.0011357 C2.44638894,20.0011357 1.99660441,19.5458389 1.99660441,18.9905988 L1.99660441,16.4809136 C1.99660441,15.9367783 1.55779026,15.4814815 1.00927257,15.4814815 L0.987331865,15.4814815 C0.449784528,15.4814815 0,15.9256735 0,16.4809136 L0,19.9789261 C0,21.0894063 0.888598661,22 1.99660441,22 L5.47420662,22 C6.01175396,22 6.46153848,21.5558079 6.46153846,21.0005678 C6.46153844,20.4453278 6.01175396,20.0011357 5.47420662,20.0011357 Z M20.0234676,15.4814815 L19.9905576,15.4814815 C19.453027,15.4814815 19.0032565,15.9256735 19.0032565,16.4809136 L19.0032565,18.9905988 C19.0032565,19.5458388 18.553486,20.0011357 18.0049854,20.0011357 L15.5257626,20.0011357 C14.9882321,20.0011357 14.5384615,20.4453278 14.5384615,21.0005678 C14.5384615,21.5558079 14.977262,22 15.5257626,22 L19.0032565,22 C20.1002577,22 20.9997987,21.1005111 20.9997987,19.9789261 L20.9997987,16.4920184 C21.0107687,15.9256735 20.5719682,15.4814815 20.0234676,15.4814815 L20.0234676,15.4814815 Z M0.955500007,12.2222222 L20.0445,12.2222222 C20.5695,12.2222222 21,11.8551079 21,11.4074074 C21,10.9597069 20.58,10.5925926 20.0445,10.5925926 L0.955500007,10.5925926 C0.430500015,10.5925926 0,10.959707 0,11.4074074 C0,11.8551078 0.430499995,12.2222222 0.955500007,12.2222222 Z" id="形状"></path>
                    </g>
                </g>
            </g>
        </g>
    </g>
</svg>