<?xml version="1.0" encoding="UTF-8"?>
<svg width="20px" height="20px" viewBox="0 0 20 20" version="1.1" xmlns="http://www.w3.org/2000/svg" xmlns:xlink="http://www.w3.org/1999/xlink">
    <title>USD</title>
    <defs>
        <rect id="path-1" x="0" y="0" width="20" height="20" rx="2"></rect>
    </defs>
    <g id="首页、usd/usdt/btc/eth" stroke="none" stroke-width="1" fill="none" fill-rule="evenodd">
        <g id="USDT账户-兑换" transform="translate(-648.000000, -724.000000)">
            <g id="温馨提示-•-目前仅支持（USDT/US" transform="translate(492.000000, 639.000000)">
                <g id="USD" transform="translate(156.000000, 85.000000)">
                    <g id="分组-4备份">
                        <g id="美国">
                            <mask id="mask-2" fill="white">
                                <use xlink:href="#path-1"></use>
                            </mask>
                            <g id="蒙版"></g>
                            <g mask="url(#mask-2)">
                                <g transform="translate(-3.500000, 0.000000)">
                                    <g>
                                        <polygon id="路径" fill="#FFFFFF" fill-rule="nonzero" points="0.00987723214 0 29.5 0 29.5 20.3769047 0.00987723214 20.3769047"></polygon>
                                        <path d="M0.00987723214,0 L29.5,0 L29.5,1.35338649 L0.00987723214,1.35338649 L0.00987723214,0 Z M0.00987723214,2.72331805 L29.5,2.72331805 L29.5,4.07670455 L0.00987723214,4.07670455 L0.00987723214,2.72331805 Z M0.00987723214,5.42678202 L29.5,5.42678202 L29.5,6.78016852 L0.00987723214,6.78016852 L0.00987723214,5.42678202 Z M0.00987723214,8.15010008 L29.5,8.15010008 L29.5,9.50348657 L0.00987723214,9.50348657 L0.00987723214,8.15010008 Z M0.00987723214,10.8734181 L29.5,10.8734181 L29.5,12.2268046 L0.00987723214,12.2268046 L0.00987723214,10.8734181 Z M0.00987723214,13.5801911 L29.5,13.5801911 L29.5,14.9335776 L0.00987723214,14.9335776 L0.00987723214,13.5801911 Z M0.00987723214,16.3035092 L29.5,16.3035092 L29.5,17.6568957 L0.00987723214,17.6568957 L0.00987723214,16.3035092 Z M0.00987723214,19.0268272 L29.5,19.0268272 L29.5,20.3802137 L0.00987723214,20.3802137 L0.00987723214,19.0268272 L0.00987723214,19.0268272 Z" id="形状" fill="#D02F44" fill-rule="nonzero"></path>
                                        <polygon id="路径" fill="#46467F" fill-rule="nonzero" points="0.00987723214 0 12.9128348 0 12.9128348 9.50348657 0.00987723214 9.50348657"></polygon>
                                        <path d="M1.87008929,1.90930075 L1.40915179,2.26005617 L1.57377232,1.68428784 L1.11283482,1.31367833 L1.68571429,1.31367833 L1.87008929,0.737909995 L2.05446429,1.31367833 L2.62734375,1.31367833 L2.16640625,1.68428784 L2.33102679,2.26005617 L1.87008929,1.90930075 L1.87008929,1.90930075 Z M4.89581473,1.90930075 L4.43487723,2.26005617 L4.59949777,1.68428784 L4.13856027,1.31367833 L4.71143973,1.31367833 L4.89581473,0.737909995 L5.08018973,1.31367833 L5.6530692,1.31367833 L5.1921317,1.68428784 L5.35675223,2.26005617 L4.89581473,1.90930075 Z M7.93470982,1.90930075 L7.47377232,2.26005617 L7.63839286,1.68428784 L7.17745536,1.31367833 L7.75033482,1.31367833 L7.93470982,0.737909995 L8.11908482,1.31367833 L8.69196429,1.31367833 L8.23102679,1.68428784 L8.39564732,2.26005617 L7.93470982,1.90930075 Z M10.9571429,1.96224496 L10.4962054,2.31300039 L10.6608259,1.72068698 L10.1998884,1.35007748 L10.7727679,1.3302234 L10.9571429,0.737909995 L11.1415179,1.3302234 L11.7143973,1.35007748 L11.2534598,1.72068698 L11.4180804,2.31300039 L10.9571429,1.96224496 Z M3.05206473,3.50093621 L2.59112723,3.85169163 L2.75574777,3.2759233 L2.29481027,2.90531379 L2.86768973,2.90531379 L3.05206473,2.32954545 L3.23643973,2.90531379 L3.8093192,2.90531379 L3.3483817,3.2759233 L3.51300223,3.85169163 L3.05206473,3.50093621 Z M6.45970982,3.50093621 L5.99877232,3.85169163 L6.16339286,3.2759233 L5.70245536,2.90531379 L6.27533482,2.90531379 L6.45970982,2.32954545 L6.64408482,2.90531379 L7.21696429,2.90531379 L6.75602679,3.2759233 L6.92064732,3.85169163 L6.45970982,3.50093621 Z M9.85089286,3.50093621 L9.38995536,3.85169163 L9.55457589,3.2759233 L9.09363839,2.90531379 L9.66651786,2.90531379 L9.85089286,2.32954545 L10.0352679,2.90531379 L10.6081473,2.90531379 L10.1472098,3.2759233 L10.3118304,3.85169163 L9.85089286,3.50093621 Z M1.87008929,5.11242575 L1.40915179,5.46318117 L1.57377232,4.88741284 L1.11283482,4.51680333 L1.68571429,4.51680333 L1.87008929,3.94103499 L2.05446429,4.51680333 L2.62734375,4.51680333 L2.16640625,4.88741284 L2.33102679,5.46318117 L1.87008929,5.11242575 Z M4.89581473,5.11242575 L4.43487723,5.44663611 L4.59949777,4.87086777 L4.13856027,4.50025826 L4.71143973,4.50025826 L4.89581473,3.92448993 L5.08018973,4.50025826 L5.6530692,4.50025826 L5.1921317,4.87086777 L5.35675223,5.44663611 L4.89581473,5.11242575 Z M7.93470982,5.11242575 L7.47377232,5.46318117 L7.63839286,4.88741284 L7.17745536,4.51680333 L7.75033482,4.51680333 L7.93470982,3.94103499 L8.11908482,4.51680333 L8.69196429,4.51680333 L8.23102679,4.88741284 L8.39564732,5.46318117 L7.93470982,5.11242575 L7.93470982,5.11242575 Z M10.9571429,5.1488249 L10.4962054,5.49958032 L10.6608259,4.90726692 L10.1998884,4.53665741 L10.7727679,4.51680333 L10.9571429,3.92448993 L11.1415179,4.51680333 L11.7143973,4.53665741 L11.2534598,4.90726692 L11.4180804,5.49958032 L10.9571429,5.1488249 Z M1.87008929,8.29900568 L1.40915179,8.64976111 L1.57377232,8.07399277 L1.11283482,7.70338326 L1.68571429,7.70338326 L1.87008929,7.12761493 L2.05446429,7.70338326 L2.62734375,7.70338326 L2.16640625,8.07399277 L2.33102679,8.64976111 L1.87008929,8.29900568 Z M4.89581473,8.29900568 L4.43487723,8.64976111 L4.59949777,8.07399277 L4.13856027,7.70338326 L4.71143973,7.70338326 L4.89581473,7.12761493 L5.08018973,7.70338326 L5.6530692,7.70338326 L5.1921317,8.07399277 L5.35675223,8.64976111 L4.89581473,8.29900568 Z M7.93470982,8.29900568 L7.47377232,8.64976111 L7.63839286,8.07399277 L7.17745536,7.70338326 L7.75033482,7.70338326 L7.93470982,7.12761493 L8.11908482,7.70338326 L8.69196429,7.70338326 L8.23102679,8.07399277 L8.39564732,8.64976111 L7.93470982,8.29900568 L7.93470982,8.29900568 Z M10.9571429,8.35525891 L10.4962054,8.70601433 L10.6608259,8.11370093 L10.1998884,7.74309143 L10.7727679,7.72323735 L10.9571429,7.13092394 L11.1415179,7.72323735 L11.7143973,7.74309143 L11.2534598,8.11370093 L11.4180804,8.70601433 L10.9571429,8.35525891 Z M3.05206473,6.70737022 L2.59112723,7.05812565 L2.75574777,6.48235731 L2.29481027,6.1117478 L2.86768973,6.1117478 L3.05206473,5.53597947 L3.23643973,6.1117478 L3.8093192,6.1117478 L3.3483817,6.48235731 L3.51300223,7.05812565 L3.05206473,6.70737022 Z M6.45970982,6.70737022 L5.99877232,7.05812565 L6.16339286,6.48235731 L5.70245536,6.1117478 L6.27533482,6.1117478 L6.45970982,5.53597947 L6.64408482,6.1117478 L7.21696429,6.1117478 L6.75602679,6.48235731 L6.92064732,7.05812565 L6.45970982,6.70737022 Z M9.85089286,6.70737022 L9.38995536,7.05812565 L9.55457589,6.48235731 L9.09363839,6.1117478 L9.66651786,6.1117478 L9.85089286,5.53597947 L10.0352679,6.1117478 L10.6081473,6.1117478 L10.1472098,6.48235731 L10.3118304,7.05812565 L9.85089286,6.70737022 Z" id="形状" fill="#FFFFFF" fill-rule="nonzero"></path>
                                    </g>
                                </g>
                            </g>
                        </g>
                    </g>
                </g>
            </g>
        </g>
    </g>
</svg>