<?xml version="1.0" encoding="UTF-8"?>
<svg width="18px" height="14px" viewBox="0 0 18 14" version="1.1" xmlns="http://www.w3.org/2000/svg" xmlns:xlink="http://www.w3.org/1999/xlink">
    <title>形状备份 7</title>
    <defs>
        <filter x="0.0%" y="0.0%" width="100.0%" height="100.0%" filterUnits="objectBoundingBox" id="filter-1">
            <feGaussianBlur stdDeviation="0" in="SourceGraphic"></feGaussianBlur>
        </filter>
    </defs>
    <g id="登录" stroke="none" stroke-width="1" fill="none" fill-rule="evenodd">
        <g id="切图" transform="translate(-346.000000, -155.000000)" fill="#828AA4" fill-rule="nonzero">
            <path d="M362.853214,155 L347.14,155 C346.837653,155 346.54769,155.118792 346.333898,155.330242 C346.120107,155.541692 346,155.828481 346,156.127517 L346,167.818792 C346,168.117828 346.120107,168.404616 346.333898,168.616067 C346.54769,168.827517 346.837653,168.946309 347.14,168.946309 L362.853214,168.946309 C363.483926,168.946309 363.996268,168.442586 364,167.818792 L364,156.127517 C364,155.828481 363.879893,155.541692 363.666102,155.330242 C363.45231,155.118792 363.162347,155 362.86,155 L362.853214,155 Z M353.812628,158.63549 C354.138435,159.386674 353.972743,160.258128 353.393298,160.840942 C352.813853,161.423755 351.935659,161.602255 351.170791,161.292685 C350.405924,160.983114 349.906186,160.246913 349.906071,159.42953 C349.924114,158.346159 350.812559,157.437631 351.907857,157.416107 C352.734175,157.402484 353.48682,157.884307 353.812628,158.63549 Z M347.938214,166.42953 C347.900256,164.218268 349.672482,162.390541 351.907857,162.33557 C354.135214,162.401366 355.895275,164.225903 355.857143,166.42953 L347.938214,166.42953 Z M360.566429,165.181208 L358.639286,165.181208 C358.264521,165.181208 357.960714,164.880728 357.960714,164.510067 C357.960714,164.139406 358.264521,163.838926 358.639286,163.838926 L360.607143,163.838926 C360.981908,163.8241 361.297867,164.112561 361.312857,164.483221 C361.327848,164.853882 361.036193,165.166382 360.661429,165.181208 L360.600357,165.181208 L360.566429,165.181208 Z M360.566429,162.496644 L357.309286,162.496644 C356.934521,162.511471 356.618562,162.22301 356.603571,161.852349 C356.588581,161.481688 356.880235,161.169189 357.255,161.154362 L360.607143,161.154362 C360.792914,161.145164 360.97436,161.211791 361.109052,161.338665 C361.243745,161.465539 361.319876,161.641536 361.319643,161.825503 C361.319643,162.196164 361.015836,162.496644 360.641071,162.496644 L360.58,162.496644 L360.566429,162.496644 Z M360.566429,159.812081 L356.284643,159.812081 C356.042213,159.821672 355.813024,159.702615 355.683411,159.499759 C355.553798,159.296903 355.543451,159.041065 355.656268,158.828618 C355.769086,158.616171 355.987927,158.47939 356.230357,158.469799 L360.566429,158.469799 C360.941193,158.469799 361.245,158.770279 361.245,159.14094 C361.2543,159.324677 361.186935,159.504135 361.058657,159.637353 C360.973137,159.726165 360.809061,159.784407 360.566429,159.812081 Z" id="形状备份-7" filter="url(#filter-1)"></path>
        </g>
    </g>
</svg>