<?xml version="1.0" encoding="UTF-8"?>
<svg width="23px" height="18px" viewBox="0 0 23 18" version="1.1" xmlns="http://www.w3.org/2000/svg" xmlns:xlink="http://www.w3.org/1999/xlink">
    <!-- Generator: Sketch 53.2 (72643) - https://sketchapp.com -->
    <title>形状</title>
    <desc>Created with Sketch.</desc>
    <g id="首页" stroke="none" stroke-width="1" fill="none" fill-rule="evenodd">
        <g transform="translate(-324.000000, -227.000000)" fill="#62697F" fill-rule="nonzero" id="形状">
            <path d="M347,233.942857 C347,232.67 346.004342,231.628571 344.788772,231.628571 L327.316842,231.628571 C326.690395,231.628571 326.211228,231.127143 326.211228,230.471429 C326.211228,229.815714 326.727719,229.314286 327.316842,229.314286 L343.683158,229.314286 C344.309605,229.314286 344.788772,228.812857 344.788772,228.157143 C344.788772,227.501429 344.309605,227 343.683158,227 L342.576535,227 L343.313947,227 L326.211228,227 C324.994649,227 324,228.041429 324,229.314286 L324,242.685714 C324,243.958571 324.994649,245 326.211228,245 L344.788772,245 C346.004342,245 347,243.958571 347,242.685714 L347,233.942857 Z M338.999479,236 L343.000521,236 C344.133438,236 345,236.65 345,237.5 C345,238.35 344.133438,239 343.000521,239 L338.999479,239 C337.866562,239 337,238.35 337,237.5 C337,236.65 337.866562,236 338.999479,236 Z"></path>
        </g>
    </g>
</svg>