<?xml version="1.0" encoding="UTF-8"?>
<svg width="18px" height="14px" viewBox="0 0 18 14" version="1.1" xmlns="http://www.w3.org/2000/svg" xmlns:xlink="http://www.w3.org/1999/xlink">
    <!-- Generator: Sketch 53.2 (72643) - https://sketchapp.com -->
    <title>消息</title>
    <desc>Created with Sketch.</desc>
    <g id="登录" stroke="none" stroke-width="1" fill="none" fill-rule="evenodd">
        <g id="切图" transform="translate(-83.000000, -1132.000000)" fill="#828AA4" fill-rule="nonzero">
            <g id="消息" transform="translate(83.000000, 1132.000000)">
                <g id="形状">
                    <path d="M8.52651283e-14,2.41218468 L7.66331551,8.39600191 C8.04962567,8.67586865 8.51679145,8.815802 8.98395722,8.80647312 C9.451123,8.8251309 9.91828878,8.67586865 10.3045989,8.39600191 L17.9679144,2.36820562 L17.9679144,11.6611138 C17.9679144,12.9491648 16.9623508,13.9933365 15.7219251,13.9933365 L2.24598931,13.9933365 C1.00556366,13.9933365 8.54170366e-14,12.9491648 8.52651283e-14,11.6611138 L8.52651283e-14,2.41218468 Z M0.500534766,0.863588766 C0.915080211,0.337172775 1.5426738,-1.56319402e-13 2.24598931,-1.56319402e-13 L15.7219251,-1.56319402e-13 C16.4098396,-1.56319402e-13 17.0245989,0.321180389 17.437861,0.826273208 C17.4348461,0.828914016 17.4318513,0.831579494 17.428877,0.834269394 L9.40620321,7.10861494 C9.14300769,7.30439095 8.78897093,7.30439095 8.5257754,7.10861494 L0.501818176,0.863588766 L0.500534766,0.863588766 Z"></path>
                </g>
            </g>
        </g>
    </g>
</svg>