<?xml version="1.0" encoding="UTF-8"?>
<svg width="15px" height="15px" viewBox="0 0 15 15" version="1.1" xmlns="http://www.w3.org/2000/svg" xmlns:xlink="http://www.w3.org/1999/xlink">
    <!-- Generator: Sketch 53.2 (72643) - https://sketchapp.com -->
    <title>资产 (3)</title>
    <desc>Created with Sketch.</desc>
    <g id="登录" stroke="none" stroke-width="1" fill="none" fill-rule="evenodd">
        <g id="切图" transform="translate(-85.000000, -1094.000000)" fill="#62697F" fill-rule="nonzero">
            <g id="资产-(3)" transform="translate(85.000000, 1094.000000)">
                <path d="M7.17857143,6.84257603 L0.214285708,3.83720931 C0.107142847,3.72987478 0,3.62254026 0,3.4078712 C0,3.30053667 0.107142861,3.19320215 0.214285708,3.08586762 L7.17857143,0.0805008976 C7.39285714,-0.0268336325 7.60714286,-0.0268336325 7.82142857,0.0805008976 L14.7857143,2.97853309 C14.8928572,2.97853309 15,3.19320214 15,3.30053667 C15,3.4078712 14.8928571,3.62254025 14.7857143,3.62254025 L7.82142857,6.84257603 C7.60714286,6.94991056 7.39285714,6.94991056 7.17857143,6.84257603 Z M14.8928571,11.4579606 C14.8928571,11.2432916 14.6785714,11.0286225 14.4642857,11.0286225 L14.3571429,11.0286225 L7.71428571,14.0339893 L7.5,14.0339893 L0.857142861,11.1359571 L0.535714292,11.1359571 C0.321428584,11.1359571 0.107142861,11.2432916 0.107142861,11.4579606 C0.107142861,11.6726297 0.214285723,11.8872987 0.428571431,11.9946333 L7.07142857,14.8926655 C7.17857143,15 7.39285714,15 7.5,15 C7.60714286,15 7.82142857,15 7.92857143,14.8926655 L14.5714286,11.8872987 C14.7857143,11.7799642 14.8928571,11.6726297 14.8928571,11.4579606 Z M15,7.37924865 C15,7.27191412 15,7.16457961 14.8928571,7.05724508 C14.7857143,6.94991055 14.6785714,6.94991055 14.5714286,6.94991055 C14.4642857,6.94991055 14.4642857,6.94991055 14.3571429,7.05724508 L7.60714286,10.0626118 L7.39285714,10.0626118 L0.642857139,6.94991055 L0.535714292,6.94991055 C0.321428584,6.94991055 0.107142861,7.05724508 0.107142861,7.27191414 C0.107142861,7.48658318 0.107142861,7.70125224 0.321428569,7.80858676 L7.07142857,10.921288 C7.17857143,11.0286225 7.39285714,11.0286225 7.60714286,11.0286225 C7.82142858,11.0286225 7.92857143,11.0286225 8.03571429,10.921288 L14.8928571,7.80858676 C14.8928571,7.70125223 15,7.48658318 15,7.37924865 Z" id="形状"></path>
            </g>
        </g>
    </g>
</svg>