<?xml version="1.0" encoding="UTF-8"?>
<svg width="24px" height="24px" viewBox="0 0 24 24" version="1.1" xmlns="http://www.w3.org/2000/svg" xmlns:xlink="http://www.w3.org/1999/xlink">
    <title>Shape Copy 2</title>
    <g id="登录" stroke="none" stroke-width="1" fill="none" fill-rule="evenodd">
        <g id="切图" transform="translate(-409.000000, -84.000000)" fill="#FFBF00">
            <path d="M421,108 C414.371875,108 409,102.628125 409,96 C409,89.371875 414.371875,84 421,84 C427.628125,84 433,89.371875 433,96 C433,102.628125 427.628125,108 421,108 L421,108 Z M421.75,89.25 C421.75,88.8351562 421.414844,88.5 421,88.5 L421,88.5 C420.585156,88.5 420.25,88.8351562 420.25,89.25 L420.25,89.25 C420.25,89.6648438 420.585156,90 421,90 L421,90 C421.414844,90 421.75,89.6648438 421.75,89.25 L421.75,89.25 L421.75,89.25 Z M421.75,92.25 C421.75,91.8351562 421.414844,91.5 421,91.5 L421,91.5 C420.585156,91.5 420.25,91.8351562 420.25,92.25 L420.25,102.75 C420.25,103.164844 420.585156,103.5 421,103.5 L421,103.5 C421.414844,103.5 421.75,103.164844 421.75,102.75 L421.75,92.25 L421.75,92.25 Z" id="Shape-Copy-2" transform="translate(421.000000, 96.000000) scale(1, -1) translate(-421.000000, -96.000000) "></path>
        </g>
    </g>
</svg>