<?xml version="1.0" encoding="UTF-8"?>
<svg width="18px" height="14px" viewBox="0 0 18 14" version="1.1" xmlns="http://www.w3.org/2000/svg" xmlns:xlink="http://www.w3.org/1999/xlink">
    <title>形状备份 5</title>
    <g id="登录" stroke="none" stroke-width="1" fill="none" fill-rule="evenodd">
        <g id="切图" transform="translate(-246.000000, -154.000000)" fill="#828AA4" fill-rule="nonzero">
            <path d="M253.714286,165.375 C253.714286,166.295407 253.868964,167.178934 254.153233,167.999971 L246.945055,168 C246.423077,168 246,167.555503 246,167.007097 L246,167.007097 L246,165.374 L249.771244,165.375 C250.024572,165.375 250.234034,165.219569 250.277454,165.015919 L250.285714,164.9375 C250.285714,164.695144 250.054387,164.5 249.771244,164.5 L249.771244,164.5 L246,164.499 L246,162.749 L250.642707,162.75 C250.887385,162.75 251.09226,162.595812 251.134767,162.391334 L251.142857,162.3125 C251.142857,162.070144 250.91797,161.875 250.642707,161.875 L250.642707,161.875 L246,161.874 L246,158.375 L257.893824,158.373494 C255.411393,159.682171 253.714286,162.326266 253.714286,165.375 Z M260.086462,159.25 L264,163.661534 L259.795937,168 L259.795937,165.186848 C258.368949,165.342119 257.164126,165.871868 256.309642,166.712161 C256.096021,163.743737 257.309388,161.990083 260.086462,161.460334 L260.086462,159.25 Z M261.267514,154 C261.829722,154 262.285714,154.522482 262.285714,155.166667 L262.285714,155.166667 L262.283883,155.166667 L262.283883,156.5 L246,156.5 L246,155.166667 C246,154.522482 246.455993,154 247.018201,154 L247.018201,154 Z" id="形状备份-5"></path>
        </g>
    </g>
</svg>