<?xml version="1.0" encoding="UTF-8"?>
<svg width="18px" height="18px" viewBox="0 0 18 18" version="1.1" xmlns="http://www.w3.org/2000/svg" xmlns:xlink="http://www.w3.org/1999/xlink">
    <title>分组 4</title>
    <g id="首页.充值、提现、转账、兑换" stroke="none" stroke-width="1" fill="none" fill-rule="evenodd">
        <g id="首页备份-28" transform="translate(-492.000000, -112.000000)">
            <g id="USD账户" transform="translate(428.000000, 88.000000)">
                <g id="分组-6" transform="translate(64.000000, 24.000000)">
                    <g id="分组-4">
                        <g>
                            <g>
                                <g id="矩形">
                                    <rect fill="#62697F" x="0" y="0" width="18" height="18" rx="2"></rect>
                                    <g id="美元" transform="translate(6.750000, 3.375000)" fill="#FEFEFE" fill-rule="nonzero">
                                        <g id="路径">
                                            <path d="M3.36342593,9.81421232 L3.36342593,11.2333048 L2.13252315,11.2333048 L2.13252315,9.92722603 C1.30150464,9.88420377 0.493634264,9.62285959 0.0231481527,9.33583048 L0.391782403,7.72602739 C0.909143514,8.03938355 1.64641203,8.3354024 2.4542824,8.3354024 C3.17534722,8.3354024 3.65393518,8.02204624 3.65393518,7.48266268 C3.65393518,6.96061644 3.25405092,6.62992296 2.32870371,6.28189212 C1.00347222,5.78617294 0.09375,5.0984589 0.09375,3.7583476 C0.09375,2.53189213 0.862268514,1.58347603 2.1875,1.30543664 L2.1875,0 L3.40277778,0 L3.40277778,1.20911815 C4.21875,1.2354452 4.78298611,1.44413527 5.21412037,1.66181506 L4.84606482,3.21896404 C4.53182871,3.05393836 3.9519676,2.73223459 3.05787037,2.73223459 C2.25,2.73223459 1.99131944,3.1322774 1.99131944,3.515625 C1.99131944,3.95869007 2.4230324,4.26305651 3.49710649,4.68107877 C4.97164353,5.26412671 5.55960649,6.02119006 5.55960649,7.2739726 C5.55960649,8.50042808 4.79108797,9.55351028 3.36400463,9.81421232 L3.36342593,9.81421232 Z"></path>
                                        </g>
                                    </g>
                                </g>
                            </g>
                        </g>
                    </g>
                </g>
            </g>
        </g>
    </g>
</svg>