<?xml version="1.0" encoding="UTF-8"?>
<svg width="18px" height="14px" viewBox="0 0 18 14" version="1.1" xmlns="http://www.w3.org/2000/svg" xmlns:xlink="http://www.w3.org/1999/xlink">
    <title>BTC</title>
    <defs>
        <path d="M2,0 L16,0 C17.1045695,-2.02906125e-16 18,0.8954305 18,2 L18,12 C18,13.1045695 17.1045695,14 16,14 L2,14 C0.8954305,14 1.3527075e-16,13.1045695 0,12 L0,2 C-1.3527075e-16,0.8954305 0.8954305,2.02906125e-16 2,0 Z M8.84724429,2 L9.74140846,2.20407628 L9.38173843,3.52531228 C9.62092223,3.57469579 9.85959966,3.62624319 10.0977379,3.67994739 L10.0977379,3.67994739 L10.4540673,2.36817885 L11.349345,2.57225508 L10.9818803,3.9197896 C12.1109991,4.27639709 12.9361245,4.8107824 12.7746627,5.80591716 C12.6577421,6.53385932 12.2167844,6.887311 11.633295,7.01143984 C12.4350362,7.39329389 12.8437015,7.98132806 12.4539662,8.99960552 C11.9718079,10.2650888 10.8259861,10.3713347 9.30156431,10.1072978 L9.30156431,10.1072978 L8.930759,11.4674556 L8.03770839,11.2633793 L8.40294604,9.92110454 C8.17021842,9.86850754 7.93415015,9.81170281 7.6902872,9.75069034 L7.6902872,9.75069034 L7.32393599,11.0992768 L6.43088539,10.8952005 L6.80057713,9.53188693 C6.59234714,9.48349768 6.37966305,9.43090074 6.16363832,9.38145957 L6.16363832,9.38145957 L5,9.11531889 L5.44429825,8.17488496 C5.44429831,8.17488496 6.10239421,8.33583171 6.09348596,8.32426036 C6.34737063,8.38211701 6.45872361,8.23063772 6.50326477,8.12965153 L6.50326477,8.12965153 L7.08786773,5.97948718 L7.18251777,6.00052599 C7.15199622,5.98951234 7.12075209,5.98037642 7.0889813,5.97317554 L7.0889813,5.97317554 L7.50655484,4.43734384 C7.51769012,4.26377382 7.45199186,4.04391849 7.09009481,3.95976331 C7.10345716,3.9523997 6.44090715,3.81249177 6.44090715,3.81249177 L6.44090715,3.81249177 L6.67808893,2.93622618 L7.91076604,3.22024985 C8.10039348,3.26684365 8.29044447,3.3075205 8.48089308,3.34648259 L8.48089308,3.34648259 L8.84724429,2 Z M8.4141498,7.12820513 L7.87179487,8.84172915 C8.54234281,8.97254015 10.6106874,9.4957841 10.9163784,8.52918079 C11.2368609,7.52063808 9.0859304,7.25901613 8.4141498,7.12820513 L8.4141498,7.12820513 Z M9.1605867,4.56410256 L8.69230769,6.12769943 C9.22263368,6.23716124 10.8580981,6.68705941 11.1238465,5.80232667 C11.4001311,4.87943297 9.69091269,4.67456864 9.1605867,4.56410256 L9.1605867,4.56410256 Z" id="path-1"></path>
    </defs>
    <g id="-充值、提现、转账、兑换" stroke="none" stroke-width="1" fill="none" fill-rule="evenodd">
        <g id="切图" transform="translate(-46.000000, -155.000000)">
            <g id="BTC" transform="translate(46.000000, 155.000000)">
                <mask id="mask-2" fill="white">
                    <use xlink:href="#path-1"></use>
                </mask>
                <use id="Mask-2" fill="#62697F" fill-rule="evenodd" xlink:href="#path-1"></use>
            </g>
        </g>
    </g>
</svg>