<?xml version="1.0" encoding="UTF-8"?>
<svg width="40px" height="40px" viewBox="0 0 40 40" version="1.1" xmlns="http://www.w3.org/2000/svg" xmlns:xlink="http://www.w3.org/1999/xlink">
    <title>Clip 2</title>
    <defs>
        <polygon id="path-1" points="-1.27542421e-12 0.0938360656 39.906623 0.0938360656 39.906623 40 -1.27542421e-12 40"></polygon>
        <path d="M0.420983607,15.3481967 C0.420983607,23.5403279 7.06229508,30.1816393 15.2544262,30.1816393 L15.2544262,30.1816393 C23.4465574,30.1816393 30.0878689,23.5403279 30.0878689,15.3481967 L30.0878689,15.3481967 C30.0878689,7.15606557 23.4465574,0.514754098 15.2544262,0.514754098 L15.2544262,0.514754098 C7.06229508,0.514754098 0.420983607,7.15606557 0.420983607,15.3481967" id="path-3"></path>
        <path d="M0.420983607,15.3481967 C0.420983607,23.5403279 7.06229508,30.1816393 15.2544262,30.1816393 L15.2544262,30.1816393 C23.4465574,30.1816393 30.0878689,23.5403279 30.0878689,15.3481967 L30.0878689,15.3481967 C30.0878689,7.15606557 23.4465574,0.514754098 15.2544262,0.514754098 L15.2544262,0.514754098 C7.06229508,0.514754098 0.420983607,7.15606557 0.420983607,15.3481967" id="path-5"></path>
        <path d="M0.420983607,15.3481967 C0.420983607,23.5403279 7.06229508,30.1816393 15.2544262,30.1816393 L15.2544262,30.1816393 C23.4465574,30.1816393 30.0878689,23.5403279 30.0878689,15.3481967 L30.0878689,15.3481967 C30.0878689,7.15606557 23.4465574,0.514754098 15.2544262,0.514754098 L15.2544262,0.514754098 C7.06229508,0.514754098 0.420983607,7.15606557 0.420983607,15.3481967 L0.420983607,15.3481967 Z" id="path-7"></path>
        <path d="M0.420983607,15.3481967 C0.420983607,23.5403279 7.06229508,30.1816393 15.2544262,30.1816393 L15.2544262,30.1816393 C23.4465574,30.1816393 30.0878689,23.5403279 30.0878689,15.3481967 L30.0878689,15.3481967 C30.0878689,7.15606557 23.4465574,0.514754098 15.2544262,0.514754098 L15.2544262,0.514754098 C7.06229508,0.514754098 0.420983607,7.15606557 0.420983607,15.3481967 L0.420983607,15.3481967 Z" id="path-9"></path>
        <path d="M15.2544262,30.1816393 C23.4465574,30.1816393 30.0878689,23.5403279 30.0878689,15.3481967 C30.0878689,7.15606557 23.4465574,0.514754098 15.2544262,0.514754098 C7.06229508,0.514754098 0.420983607,7.15606557 0.420983607,15.3481967 C0.420983607,23.5403279 7.06229508,30.1816393 15.2544262,30.1816393 Z" id="path-11"></path>
    </defs>
    <g id="-充值、提现、转账、兑换" stroke="none" stroke-width="1" fill="none" fill-rule="evenodd">
        <g id="切图" transform="translate(-86.000000, -95.000000)">
            <g id="Clip-2" transform="translate(86.000000, 95.000000)">
                <mask id="mask-2" fill="white">
                    <use xlink:href="#path-1"></use>
                </mask>
                <g></g>
                <rect id="矩形" fill="#1C2F62" fill-rule="evenodd" mask="url(#mask-2)" x="0" y="0" width="40" height="40" rx="4"></rect>
                <g id="分组" stroke-width="1" fill-rule="evenodd" mask="url(#mask-2)">
                    <g transform="translate(4.590164, 4.590164)">
                        <mask id="mask-4" fill="white">
                            <use xlink:href="#path-3"></use>
                        </mask>
                        <g id="Clip-4" stroke="none" fill="none"></g>
                        <path d="M16.6451148,0.332065574 L19.7316721,5.79698361 L3.89363934,5.79698361 C3.89363934,5.79698361 6.17036066,-1.48957377 16.6451148,0.332065574" id="Fill-3" stroke="none" fill="#FFFFFF" fill-rule="evenodd" mask="url(#mask-4)"></path>
                    </g>
                </g>
                <g id="分组" stroke-width="1" fill-rule="evenodd" mask="url(#mask-2)">
                    <g transform="translate(4.590164, 4.590164)">
                        <mask id="mask-6" fill="white">
                            <use xlink:href="#path-5"></use>
                        </mask>
                        <g id="Clip-6" stroke="none" fill="none"></g>
                        <path d="M18.2642623,0.635606557 L26.107541,14.196918 L29.8013115,8.42839344 C29.8013115,8.42839344 25.7527869,-0.629311475 18.2642623,0.635606557" id="Fill-5" stroke="none" fill="#FFFFFF" fill-rule="evenodd" mask="url(#mask-6)"></path>
                    </g>
                </g>
                <g id="分组" stroke-width="1" fill-rule="evenodd" mask="url(#mask-2)">
                    <g transform="translate(4.590164, 4.590164)">
                        <mask id="mask-8" fill="white">
                            <use xlink:href="#path-7"></use>
                        </mask>
                        <g id="Clip-8" stroke="none" fill="none"></g>
                        <path d="M21.8567213,23.9188852 L30.1557377,10.1483934 C30.1557377,10.1483934 34.1531148,18.7677084 28.8396721,23.9188852 L21.8567213,23.9188852 Z" id="Fill-7" stroke="none" fill="#FFFFFF" fill-rule="evenodd" mask="url(#mask-8)"></path>
                    </g>
                </g>
                <g id="分组" stroke-width="1" fill-rule="evenodd" mask="url(#mask-2)">
                    <g transform="translate(4.590164, 4.590164)">
                        <mask id="mask-10" fill="white">
                            <use xlink:href="#path-9"></use>
                        </mask>
                        <g id="Clip-10" stroke="none" fill="none"></g>
                        <path d="M11.8125902,25.228 L27.9798033,25.228 C27.9798033,25.228 23.2742295,32.615541 14.823082,31.3001311 L11.8125902,25.228 Z" id="Fill-9" stroke="none" fill="#FFFFFF" fill-rule="evenodd" mask="url(#mask-10)"></path>
                    </g>
                </g>
                <g id="分组" stroke-width="1" fill-rule="evenodd" mask="url(#mask-2)">
                    <g transform="translate(4.590164, 4.590164)">
                        <mask id="mask-12" fill="white">
                            <use xlink:href="#path-11"></use>
                        </mask>
                        <g id="Clip-12" stroke="none" fill="none"></g>
                        <path d="M13.5582295,12.9063607 C12.7234754,12.9063607 11.559541,12.1981639 11.2054426,10.5535738 C11.2054426,10.5535738 12.9005246,11.9450492 15.329377,11.5909508 C15.329377,11.5909508 14.3929836,12.9063607 13.5582295,12.9063607 M18.036918,10.9332459 C17.3785574,10.8066885 17.5051148,10.7811148 17.3785574,10.5535738 C17.252,10.3260328 17.5051148,10.3516066 17.252,9.28865574 C16.999541,8.22570492 12.5464262,7.35554098 12.5464262,7.35554098 L2.932,7.35554098 L0.756262295,9.81980328 C0.756262295,9.81980328 -1.3184918,13.3116066 1.08544262,11.9201311 C3.48872131,10.5286557 5.71495082,10.730623 5.71495082,10.730623 C2.19822951,11.7175082 -0.0535737705,13.9181639 -0.0535737705,13.9181639 L-0.888327869,18.4473443 C-0.888327869,18.4473443 -2.83652459,23.6342295 1.16085246,19.3043934 C5.15822951,14.9745574 5.76544262,15.3352131 5.76544262,15.3352131 C1.84413115,18.5483279 1.36347541,22.3942295 1.36347541,22.3942295 L5.71495082,27.125377 C5.15822951,22.1411148 6.2972459,20.395541 6.2972459,20.395541 C5.68937705,25.5063607 7.94183607,28.3424262 7.94183607,28.3424262 L4.98118033,28.6689836 C4.98118033,28.6689836 14.8992131,33.1470164 12.9510164,30.3135738 C9.46380328,25.2414426 8.75101639,21.9896393 10.5726557,19.7122623 C12.3942951,17.435541 15.4303607,17.4099672 17.0500328,17.435541 C18.6690492,17.460459 19.5798689,18.8014426 19.2762623,17.890623 C18.9726557,16.9798033 16.6198689,16.3981639 16.2906885,16.3476721 C15.9621639,16.2965246 13.3051148,16.2965246 13.6342951,16.1194754 C14.6677377,15.5634098 16.8224918,15.4112787 18.694623,15.3857049 C20.5667541,15.3607869 21.8565902,16.8027541 21.8565902,16.8027541 L21.8565902,15.4361967 C21.8565902,12.2598033 18.694623,11.0598033 18.036918,10.9332459" id="Fill-11" stroke="none" fill="#FFFFFF" fill-rule="evenodd" mask="url(#mask-12)"></path>
                    </g>
                </g>
            </g>
        </g>
    </g>
</svg>