<?xml version="1.0" encoding="UTF-8"?>
<svg width="18px" height="14px" viewBox="0 0 18 14" version="1.1" xmlns="http://www.w3.org/2000/svg" xmlns:xlink="http://www.w3.org/1999/xlink">
    <title>ETH</title>
    <defs>
        <path d="M2,0 L16,0 C17.1045695,-2.02906125e-16 18,0.8954305 18,2 L18,12 C18,13.1045695 17.1045695,14 16,14 L2,14 C0.8954305,14 1.3527075e-16,13.1045695 0,12 L0,2 C-1.3527075e-16,0.8954305 0.8954305,2.02906125e-16 2,0 Z M8.83916084,11.2948718 L6,7.43370857 L8.83916084,9.0565163 L11.6783217,7.43370857 L8.83916084,11.2948718 Z M8.83916084,8.50625391 L6,6.8531565 L8.83916084,2.5 L11.6783217,6.8531565 L8.83916084,8.50625391 Z" id="path-1"></path>
    </defs>
    <g id="-充值、提现、转账、兑换" stroke="none" stroke-width="1" fill="none" fill-rule="evenodd">
        <g id="切图" transform="translate(-46.000000, -182.000000)">
            <g id="ETH" transform="translate(46.000000, 182.000000)">
                <mask id="mask-2" fill="white">
                    <use xlink:href="#path-1"></use>
                </mask>
                <use id="Mask-2" fill="#62697F" fill-rule="evenodd" xlink:href="#path-1"></use>
            </g>
        </g>
    </g>
</svg>