<?xml version="1.0" encoding="UTF-8"?>
<svg width="20px" height="15px" viewBox="0 0 20 15" version="1.1" xmlns="http://www.w3.org/2000/svg" xmlns:xlink="http://www.w3.org/1999/xlink">
    <title>兑换</title>
    <defs>
        <filter id="filter-1">
            <feColorMatrix in="SourceGraphic" type="matrix" values="0 0 0 0 0.211765 0 0 0 0 0.454902 0 0 0 0 0.843137 0 0 0 1.000000 0"></feColorMatrix>
        </filter>
    </defs>
    <g id="首页.充值、提现、转账、兑换" stroke="none" stroke-width="1" fill="none" fill-rule="evenodd">
        <g id="首页备份-28" transform="translate(-1485.000000, -202.000000)" fill="#3674D7">
            <g id="USD账户" transform="translate(428.000000, 88.000000)">
                <g filter="url(#filter-1)" id="兑换">
                    <g transform="translate(1057.000000, 114.000000)">
                        <path d="M18.8112641,-2.31075159e-10 L1.19087779,-2.31075159e-10 C0.533324766,-2.31075159e-10 -6.91200184e-12,0.559802158 -6.91200184e-12,1.25 L-6.91200184e-12,3.75 L20,3.75 L20,1.25 C20.0021419,0.559802158 19.4688171,-2.31075159e-10 18.8112641,-2.31075159e-10 Z" id="形状" fill="#828AA4" fill-rule="nonzero"></path>
                        <path d="M20,4.6875 L20,13.9361755 C20,14.523753 19.4804318,15 18.8394062,15 L18.8394062,15 L1.16059379,15 C0.519568151,15 0,14.523753 0,13.9361755 L0,13.9361755 L0,4.6875 L20,4.6875 Z M14.1738426,10.358356 C14.140862,10.358356 14.0833995,10.3650004 14.0521715,10.3787364 C13.970668,10.4145166 13.8943232,10.4915151 13.8943232,10.5764682 L13.8943232,10.5764682 L13.8943232,11.0950255 L11.638966,11.0950255 L11.5619068,11.2264256 C11.4462288,11.3971018 11.2867174,11.545849 11.1781195,11.6266637 C11.0036155,11.7551644 10.722112,11.9196533 10.4852403,11.9812937 L10.4852403,11.9812937 L10.4852403,12.2267739 L10.481516,12.3103816 C10.463656,12.4900559 10.378249,12.5634254 10.1547729,12.5634254 L10.1547729,12.5634254 L9.64161155,12.5634254 L9.55373051,12.5598084 C9.31374967,12.5403379 9.04141314,12.4408286 9.04141314,12.2267739 L9.04141314,12.2267739 L9.04141314,11.9693358 L8.90371513,11.9203403 C8.8050583,11.8842994 8.69713404,11.8415144 8.6066358,11.7920468 C8.5432209,11.7574832 8.55638228,11.7182613 8.4323082,11.675504 L8.4323082,11.675504 L8.4323082,13.2235228 L8.44477966,13.2690454 C8.49286187,13.3485112 8.66895786,13.3614754 8.77827381,13.3614754 L8.77827381,13.3614754 L13.8943232,13.3614754 L13.8943232,14.100183 L13.9029161,14.1498934 C13.925071,14.2142157 13.9869775,14.2692678 14.0521715,14.2978004 C14.0834105,14.3115364 14.1288139,14.3184096 14.1616843,14.3184096 C14.2152337,14.3184096 14.2743386,14.3006807 14.316843,14.2667827 L14.316843,14.2667827 L16.5339286,12.5046029 L16.5786653,12.4572126 C16.603422,12.4220599 16.6174824,12.3806081 16.6174824,12.3377745 C16.6174824,12.2735242 16.5887897,12.2126012 16.5367615,12.1711645 L16.5367615,12.1711645 L14.3228726,10.4096502 L14.2778048,10.381638 C14.2457649,10.3664397 14.210194,10.358356 14.1738426,10.358356 Z M10.0002094,7.34959031 L9.51517857,7.34959031 L9.51517857,7.87084073 L9.40299334,7.89377526 C9.32771409,7.91291177 9.24966196,7.93974601 9.15806878,7.97430263 C9.02043651,8.0264807 8.92977293,8.09516069 8.82315917,8.17891803 C8.71604938,8.26343445 8.6457231,8.3648999 8.57947531,8.48431261 C8.51348104,8.60373572 8.48847002,8.73921362 8.48847002,8.89063193 C8.48847002,9.19692075 8.54345238,9.43242915 8.77160494,9.59726112 C8.95339506,9.72864214 9.1542328,9.85969041 9.51517857,9.99106103 L9.51517857,9.99106103 L9.51517857,10.9903366 L9.40619529,10.9460319 C9.33570081,10.911627 9.2687647,10.8674925 9.20080467,10.8136715 C9.09933862,10.7327945 9.04061949,10.6303412 8.96218034,10.5056046 L8.96218034,10.5056046 L8.39560185,10.955014 L8.49140194,11.070215 C8.61885626,11.2160574 8.74714727,11.3308417 8.8997134,11.4143017 C9.09064153,11.5186578 9.27829586,11.584 9.51516755,11.6112536 L9.51516755,11.6112536 L9.51516755,12.116522 L10.0002094,12.116522 L10.0002094,11.6163591 L10.1771044,11.5964143 C10.4652845,11.5552322 10.7168338,11.4743373 10.8806437,11.3535971 C11.1335979,11.1653484 11.2849978,10.8911692 11.2849978,10.530945 C11.2849978,10.2043901 11.1141424,9.95193267 10.846638,9.77391582 C10.611078,9.61905571 10.3611662,9.49288418 10.0002205,9.39540123 L10.0002205,9.39540123 L10.0002205,8.4918305 L10.1032895,8.51673918 C10.2139144,8.54637155 10.3398341,8.59019209 10.4146936,8.64835431 C10.5147377,8.72589355 10.6478285,8.80498211 10.7371914,8.88540165 L10.7371914,8.88540165 L11.2594907,8.42125804 L11.1683564,8.34064171 C11.1105636,8.28912142 11.0577565,8.24203153 11.0042879,8.19926727 C10.9238536,8.13524567 10.8457562,8.08052005 10.7597884,8.03476805 C10.6742945,7.98957756 10.5088845,7.95357905 10.4123567,7.9264398 C10.3160604,7.89973727 10.2370922,7.8795856 10.0002094,7.86606796 L10.0002094,7.86606796 L10.0002094,7.34959031 Z M10.0002094,10.1826683 C10.1242835,10.2298657 10.2631944,10.2717287 10.32403,10.3090582 C10.4703593,10.3863895 10.5817019,10.4855153 10.5817019,10.6068101 C10.5817019,10.6738368 10.5950728,10.7303197 10.5678241,10.7759573 C10.5412809,10.8213766 10.5125992,10.859933 10.4699735,10.8918347 C10.4269951,10.923965 10.3030203,10.9491078 10.2458333,10.9676062 C10.1888779,10.9860942 10.1242945,11.0002773 10.0002205,11.0104675 L10.0002205,11.0104675 Z M5.74673721,5.75892857 C5.69319885,5.75892857 5.65833333,5.77642871 5.61583995,5.8102124 L5.61583995,5.8102124 L3.4109127,7.57162267 L3.36772487,7.61905917 C3.34473839,7.65421196 3.33333333,7.69561751 3.33333333,7.73845109 C3.33333333,7.80270145 3.36565256,7.86362439 3.4175485,7.90516512 L3.4175485,7.90516512 L5.63288139,9.66734486 L5.67817218,9.69536146 C5.71035345,9.71055975 5.74605269,9.71863909 5.78252866,9.71863909 C5.81565256,9.71863909 5.77652116,9.71188027 5.80774912,9.69836263 C5.88925265,9.66259289 5.86920194,9.585376 5.86920194,9.50064122 L5.86920194,9.50064122 L5.86920194,8.71154406 L8.03681658,8.71154406 L8.04604533,8.63134522 C8.06504321,8.51253078 8.11093915,8.3518481 8.18525132,8.21724573 C8.27943122,8.04731866 8.40485009,7.96519382 8.55821208,7.84434616 C8.70313051,7.7303717 8.79928351,7.63830621 8.98012566,7.56963662 C9.02311508,7.55335307 9.04141314,7.53840048 9.04141314,7.52477886 L9.04141314,7.52477886 L9.04141314,7.50263074 L9.05131959,7.43029163 C9.10945679,7.21379059 9.41164131,7.00908108 9.64161155,7.00908108 L9.64161155,7.00908108 L10.1547729,7.00908108 L10.233372,7.01808332 C10.4259288,7.06514152 10.4852403,7.2889874 10.4852403,7.50649886 L10.4852403,7.50649886 L10.5032738,7.50694329 C10.5239357,7.50723829 10.555111,7.50753175 10.5562059,7.50782983 C10.6872685,7.54471218 10.843772,7.59400995 10.9581459,7.65449617 L10.9581459,7.65449617 L11.0577989,7.71780877 C11.0879707,7.74013636 11.1160906,7.76367053 11.1451405,7.78836081 L11.1451405,7.78836081 L11.2063333,7.83892857 L11.2071429,6.85303558 L11.2074295,6.79838828 C11.2076931,6.68450546 11.2007999,6.55154032 11.0913801,6.55154032 L11.0913801,6.55154032 L5.86921296,6.55154032 L5.86921296,5.97704082 L5.8706761,5.92729068 C5.87327469,5.86294074 5.87325176,5.80794352 5.80805776,5.7793194 C5.77681878,5.76558341 5.77986111,5.75892857 5.74673721,5.75892857 Z M9.51516755,8.48172346 L9.51516755,9.21371381 L9.50653047,9.19575076 C9.49507888,9.18302185 9.47236919,9.16879714 9.43917549,9.15314441 C9.38891093,9.1297589 9.3755291,9.10273403 9.3341821,9.07226736 C9.29308862,9.04180069 9.27417328,9.00646767 9.24575617,8.9662579 C9.21709656,8.92604814 9.2105269,8.88029614 9.2105269,8.83001054 C9.2105269,8.77616876 9.22802028,8.72909619 9.25491623,8.68865766 C9.28121693,8.64833352 9.31650132,8.61399872 9.3557209,8.58519576 C9.39472002,8.55660076 9.3772597,8.53478538 9.42752425,8.5198328 C9.47731481,8.50444349 9.51516755,8.4918097 9.51516755,8.48172346 L9.51516755,8.48172346 Z" id="路径-2" fill="#828AA4"></path>
                    </g>
                </g>
            </g>
        </g>
    </g>
</svg>