<?xml version="1.0" encoding="UTF-8"?>
<svg width="18px" height="18px" viewBox="0 0 18 18" version="1.1" xmlns="http://www.w3.org/2000/svg" xmlns:xlink="http://www.w3.org/1999/xlink">
    <title>充值</title>
    <defs>
        <filter id="filter-1">
            <feColorMatrix in="SourceGraphic" type="matrix" values="0 0 0 0 0.384314 0 0 0 0 0.411765 0 0 0 0 0.498039 0 0 0 1.000000 0"></feColorMatrix>
        </filter>
    </defs>
    <g id="首页.充值、提现、转账、兑换" stroke="none" stroke-width="1" fill="none" fill-rule="evenodd">
        <g id="首页备份-28" transform="translate(-492.000000, -402.000000)" fill="#62697F">
            <g filter="url(#filter-1)" id="记录">
                <g transform="translate(492.000000, 402.000000)">
                    <path d="M16.8,1.5 C17.4627417,1.5 18,2.0372583 18,2.7 L18,16.8 C18,17.4627417 17.4627417,18 16.8,18 L1.2,18 C0.5372583,18 -5.84971365e-16,17.4627417 0,16.8 L0,2.7 C-8.11624501e-17,2.0372583 0.5372583,1.5 1.2,1.5 L4,1.5 C4,2.32842712 4.67157288,3 5.5,3 L5.5,3 L12.5,3 C13.3284271,3 14,2.32842712 14,1.5 L14,1.5 L16.8,1.5 Z M14.75,14 L6.25,14 C5.83578644,14 5.5,14.3357864 5.5,14.75 C5.5,15.1642136 5.83578644,15.5 6.25,15.5 L6.25,15.5 L14.75,15.5 C15.1642136,15.5 15.5,15.1642136 15.5,14.75 C15.5,14.3357864 15.1642136,14 14.75,14 L14.75,14 Z M3.25,14 C2.83578644,14 2.5,14.3357864 2.5,14.75 C2.5,15.1642136 2.83578644,15.5 3.25,15.5 C3.66421356,15.5 4,15.1642136 4,14.75 C4,14.3357864 3.66421356,14 3.25,14 Z M14.75,10 L6.25,10 C5.83578644,10 5.5,10.3357864 5.5,10.75 C5.5,11.1642136 5.83578644,11.5 6.25,11.5 L6.25,11.5 L14.75,11.5 C15.1642136,11.5 15.5,11.1642136 15.5,10.75 C15.5,10.3357864 15.1642136,10 14.75,10 L14.75,10 Z M3.25,10 C2.83578644,10 2.5,10.3357864 2.5,10.75 C2.5,11.1642136 2.83578644,11.5 3.25,11.5 C3.66421356,11.5 4,11.1642136 4,10.75 C4,10.3357864 3.66421356,10 3.25,10 Z M14.75,6 L6.25,6 C5.83578644,6 5.5,6.33578644 5.5,6.75 C5.5,7.16421356 5.83578644,7.5 6.25,7.5 L6.25,7.5 L14.75,7.5 C15.1642136,7.5 15.5,7.16421356 15.5,6.75 C15.5,6.33578644 15.1642136,6 14.75,6 L14.75,6 Z M3.25,6 C2.83578644,6 2.5,6.33578644 2.5,6.75 C2.5,7.16421356 2.83578644,7.5 3.25,7.5 C3.66421356,7.5 4,7.16421356 4,6.75 C4,6.33578644 3.66421356,6 3.25,6 Z M6,0 L12,0 C12.5522847,-1.01453063e-16 13,0.44771525 13,1 C13,1.55228475 12.5522847,2 12,2 L6,2 C5.44771525,2 5,1.55228475 5,1 C5,0.44771525 5.44771525,1.01453063e-16 6,0 Z" id="矩形-2" fill="#828AA4" fill-rule="nonzero"></path>
                </g>
            </g>
        </g>
    </g>
</svg>