<?xml version="1.0" encoding="UTF-8"?>
<svg width="20px" height="16px" viewBox="0 0 20 16" version="1.1" xmlns="http://www.w3.org/2000/svg" xmlns:xlink="http://www.w3.org/1999/xlink">
    <title>转账</title>
    <defs>
        <filter id="filter-1">
            <feColorMatrix in="SourceGraphic" type="matrix" values="0 0 0 0 0.211765 0 0 0 0 0.454902 0 0 0 0 0.815686 0 0 0 1.000000 0"></feColorMatrix>
        </filter>
    </defs>
    <g id="首页.充值、提现、转账、兑换" stroke="none" stroke-width="1" fill="none" fill-rule="evenodd">
        <g id="首页备份-28" transform="translate(-1367.000000, -202.000000)" fill="#3674D0">
            <g id="USD账户" transform="translate(428.000000, 88.000000)">
                <g filter="url(#filter-1)" id="转账">
                    <g transform="translate(939.000000, 114.500000)">
                        <g id="编组-2" fill="none" transform="translate(-0.000000, -0.000000)">
                            <path d="M18.8112641,0 L1.19087779,0 C0.533324766,0 -1.34213628e-12,0.559802158 -1.34213628e-12,1.25 L-1.34213628e-12,3.75 L20,3.75 L20,1.25 C20.0021419,0.559802158 19.4688171,0 18.8112641,0 Z" id="形状" fill="#828AA4" fill-rule="nonzero"></path>
                            <path d="M20,4.6875 L20,13.9361755 C20,14.523753 19.4804318,15 18.8394062,15 L18.8394062,15 L1.16059379,15 C0.519568151,15 8.08439735e-12,14.523753 8.08439735e-12,13.9361755 L8.08439735e-12,13.9361755 L8.08439735e-12,4.6875 L20,4.6875 Z M14.5765075,12.0971603 L6.723373,12.097 L6.389373,12.166 L6.389373,12.7400175 C6.389373,13.0161598 6.61323063,13.2400175 6.889373,13.2400175 L6.889373,13.2400175 L14.0765075,13.2400175 C14.3526499,13.2400175 14.5765075,13.0161598 14.5765075,12.7400175 L14.5765075,12.7400175 L14.5765075,12.0971603 Z M10.7423253,9.64803082 L4.22492783,11.0333464 L4.3027289,11.4048048 C4.36052572,11.6767341 4.62603414,11.8491573 4.89614214,11.791744 L4.89614214,11.791744 L10.4371545,10.6139655 C10.7072625,10.5565523 10.8796857,10.2910438 10.8222725,10.0209358 L10.8222725,10.0209358 L10.7423253,9.64803082 Z M10.970373,7.525 L11.6337917,10.5599228 L11.6450914,10.6494488 C11.6534624,10.8863659 11.491507,11.102772 11.2495446,11.1556005 L11.2495446,11.1556005 L11.24712,11.1561111 L9.472373,11.525 L14.5765075,11.5257317 L14.5765075,8.02573174 C14.5765075,7.74958937 14.3526499,7.52573174 14.0765075,7.52573174 L14.0765075,7.52573174 L10.970373,7.525 Z M17.5716239,7.50087677 L17.5124013,7.50322289 C17.4532411,7.51310048 17.4006108,7.54508118 17.3661044,7.59211982 L17.3661044,7.59211982 L16.677189,8.530539 L15.9882737,7.59211982 C15.9537673,7.54508118 15.901137,7.51310048 15.8419768,7.50322289 C15.7828166,7.49334531 15.7219801,7.50638119 15.6728693,7.53945881 L15.6728693,7.53945881 L15.6521798,7.55525712 C15.5666521,7.62850801 15.5519002,7.75140817 15.6178441,7.84131172 L15.6178441,7.84131172 L16.3261283,8.80564011 L15.7756563,8.80585075 C15.654098,8.80585075 15.5555556,8.9001593 15.5555556,9.01649479 L15.5555556,9.01649479 L15.5570963,9.0409295 C15.5701518,9.14698727 15.6640708,9.22691409 15.7756563,9.22692818 L15.7756563,9.22692818 L16.4722752,9.22692818 L16.4722752,9.64821625 L15.7756563,9.6484269 C15.654098,9.6484269 15.5555556,9.74273544 15.5555556,9.85907093 L15.5555556,9.85907093 L15.5570963,9.88350564 C15.5701518,9.98956341 15.6640708,10.0694902 15.7756563,10.0695043 L15.7756563,10.0695043 L16.4724953,10.0695043 L16.4724953,10.5036417 C16.4724953,10.6199772 16.5710378,10.7142857 16.6925961,10.7142857 L16.6925961,10.7142857 L16.7183479,10.7128112 C16.8291671,10.7003166 16.9126821,10.6104329 16.9126969,10.5036417 L16.9126969,10.5036417 L16.9124768,10.0695043 L17.5144523,10.069715 C17.6360106,10.069715 17.7345531,9.97540642 17.7345531,9.85907093 L17.7345531,9.85907093 L17.7332325,9.83442558 C17.7202702,9.7282044 17.6261966,9.64813596 17.5144523,9.64821625 L17.5144523,9.64821625 L16.9124768,9.64821625 L16.9124768,9.22692818 L17.5144523,9.22713883 C17.6360106,9.22713883 17.7345531,9.13283028 17.7345531,9.01649479 L17.7345531,9.01649479 L17.7332325,8.99184944 C17.7202799,8.88570812 17.6263327,8.80566674 17.5146724,8.80564011 L17.5146724,8.80564011 L17.0282498,8.80564011 L17.736534,7.84131172 C17.808507,7.74336224 17.7838557,7.60833941 17.6815088,7.53945881 C17.632398,7.50638119 17.5715615,7.49334531 17.5124013,7.50322289 Z M9.6357287,6.41125184 L9.54616759,6.42220102 L4.01752186,7.60085686 C3.74827511,7.65825776 3.57608224,7.92250931 3.63231698,8.19200203 L3.63231698,8.19200203 L4.13789792,10.6142834 L10.6533391,9.22938365 L10.1391341,6.8070223 L10.1127495,6.72044235 C10.0227111,6.50115018 9.78617639,6.37075778 9.54616759,6.42220102 Z" id="路径-2" fill="#828AA4"></path>
                        </g>
                    </g>
                </g>
            </g>
        </g>
    </g>
</svg>