<?xml version="1.0" encoding="UTF-8"?>
<svg width="18px" height="14px" viewBox="0 0 18 14" version="1.1" xmlns="http://www.w3.org/2000/svg" xmlns:xlink="http://www.w3.org/1999/xlink">
    <title>USD</title>
    <defs>
        <filter id="filter-1">
            <feColorMatrix in="SourceGraphic" type="matrix" values="0 0 0 0 0.384314 0 0 0 0 0.411765 0 0 0 0 0.498039 0 0 0 1.000000 0"></feColorMatrix>
        </filter>
    </defs>
    <g id="-充值、提现、转账、兑换" stroke="none" stroke-width="1" fill="none" fill-rule="evenodd">
        <g id="切图" transform="translate(-46.000000, -112.000000)" fill="#62697F">
            <g filter="url(#filter-1)" id="USD">
                <g transform="translate(46.000000, 112.000000)">
                    <g id="矩形" fill="none">
                        <path d="M2,0 L16,0 C17.1045695,-2.02906125e-16 18,0.8954305 18,2 L18,12 C18,13.1045695 17.1045695,14 16,14 L2,14 C0.8954305,14 1.3527075e-16,13.1045695 0,12 L0,2 C-1.3527075e-16,0.8954305 0.8954305,2.02906125e-16 2,0 Z M9.96185851,10.3248202 L9.96185851,11.4562552 L8.87040441,11.4562552 L8.87040441,10.4149255 C8.13353179,10.380624 7.41718485,10.1722557 7,9.94340888 L7.32687176,8.65992128 C7.78562116,8.90975851 8.4393647,9.14577279 9.15571163,9.14577279 C9.79508719,9.14577279 10.219456,8.89593556 10.219456,8.46588786 C10.219456,8.04966313 9.86487456,7.78600294 9.04435972,7.50851977 C7.86926339,7.11328546 7.06260338,6.56497465 7.06260338,5.49651091 C7.06260338,4.51866437 7.74405662,3.76249716 8.91915295,3.54081781 L8.91915295,2.5 L9.99675219,2.5 L9.99675219,3.46402358 C10.7202831,3.485014 11.2205971,3.65140151 11.6028882,3.82495647 L11.2765296,5.06646321 C10.9978932,4.9348891 10.4837244,4.67839637 9.69091927,4.67839637 C8.97457234,4.67839637 8.74519764,4.99734841 8.74519764,5.30298945 C8.74519764,5.65624291 9.12800194,5.89891268 10.0803944,6.23219965 C11.3878815,6.69706072 11.9092343,7.30066338 11.9092343,8.29950036 C11.9092343,9.2773469 11.2277811,10.1169638 9.96237164,10.3248202 L9.96185851,10.3248202 Z" id="矩形-2" fill="#62697F"></path>
                    </g>
                </g>
            </g>
        </g>
    </g>
</svg>