<?xml version="1.0" encoding="UTF-8"?>
<svg width="18px" height="14px" viewBox="0 0 18 14" version="1.1" xmlns="http://www.w3.org/2000/svg" xmlns:xlink="http://www.w3.org/1999/xlink">
    <title>USDT</title>
    <defs>
        <path d="M2,0 L16,0 C17.1045695,-2.02906125e-16 18,0.8954305 18,2 L18,12 C18,13.1045695 17.1045695,14 16,14 L2,14 C0.8954305,14 1.3527075e-16,13.1045695 0,12 L0,2 C-1.3527075e-16,0.8954305 0.8954305,2.02906125e-16 2,0 Z M10.2105261,5.91013962 L10.2105261,4.75606029 L12.6382994,4.75606029 L12.6382994,3 L6.02836983,3 L6.02836983,4.75606029 L8.45614319,4.75606029 L8.45614319,5.91013962 C6.48413479,6.00845188 5,6.43318019 5,6.94072328 C5,7.44923494 6.48413477,7.87299467 8.45614319,7.9717912 L8.45614319,11.6631016 L10.2123099,11.6631016 L10.2123099,7.97227551 C12.1825345,7.87299467 13.6631016,7.44923494 13.6631016,6.94120757 C13.6613178,6.43318019 12.1807506,6.00893617 10.2105261,5.91013962 L10.2105261,5.91013962 Z M10.220263,7.70667677 C10.1706647,7.7085419 9.91365506,7.72532815 9.34101957,7.72532815 C8.88155848,7.72532815 8.56097278,7.71273846 8.44644569,7.70667677 L8.44644569,7.7085419 C6.68525337,7.62787466 5.36864262,7.31033485 5.36864262,6.93124549 C5.36864262,6.55215611 6.6834498,6.23508257 8.44689658,6.15394905 L8.44689658,7.38960323 C8.56322726,7.39753008 8.89192905,7.41851289 9.34868477,7.41851289 C9.8956193,7.41851289 10.1706647,7.39566495 10.2225175,7.38913696 L10.2225175,6.15021877 C11.9819063,6.23088601 13.294459,6.54795952 13.294459,6.9275152 C13.2904009,7.30660458 11.9778482,7.62321182 10.220263,7.70621049 L10.220263,7.70667677 Z" id="path-1"></path>
    </defs>
    <g id="-充值、提现、转账、兑换" stroke="none" stroke-width="1" fill="none" fill-rule="evenodd">
        <g id="切图" transform="translate(-46.000000, -134.000000)">
            <g id="USDT" transform="translate(46.000000, 134.000000)">
                <mask id="mask-2" fill="white">
                    <use xlink:href="#path-1"></use>
                </mask>
                <use id="Mask-2" fill="#62697F" fill-rule="evenodd" xlink:href="#path-1"></use>
            </g>
        </g>
    </g>
</svg>