<?xml version="1.0" encoding="UTF-8"?>
<svg width="20px" height="15px" viewBox="0 0 20 15" version="1.1" xmlns="http://www.w3.org/2000/svg" xmlns:xlink="http://www.w3.org/1999/xlink">
    <title>提现</title>
    <defs>
        <filter id="filter-1">
            <feColorMatrix in="SourceGraphic" type="matrix" values="0 0 0 0 0.211765 0 0 0 0 0.454902 0 0 0 0 0.843137 0 0 0 1.000000 0"></feColorMatrix>
        </filter>
    </defs>
    <g id="首页.充值、提现、转账、兑换" stroke="none" stroke-width="1" fill="none" fill-rule="evenodd">
        <g id="首页备份-28" transform="translate(-1603.000000, -203.000000)" fill="#3674D7">
            <g id="USD账户" transform="translate(428.000000, 88.000000)">
                <g filter="url(#filter-1)" id="提现">
                    <g transform="translate(1175.000000, 115.000000)">
                        <path d="M9.07029478,11.6517857 C9.07029478,12.8466024 9.3407206,13.9805136 9.82577165,14.9997114 L1.10532742,15 C0.494826811,15 3.94745964e-15,14.523753 3.94745964e-15,13.9361755 L3.94745964e-15,13.9361755 L3.94745964e-15,13.124 L4.19027057,13.125 C4.47174672,13.125 4.70448241,12.9584666 4.75272644,12.7402707 L4.76190476,12.65625 C4.76190476,12.3965827 4.504875,12.1875 4.19027057,12.1875 L4.19027057,12.1875 L3.94745964e-15,12.187 L3.94745964e-15,10.312 L5.15856358,10.3125 C5.43042764,10.3125 5.65806691,10.1472988 5.70529707,9.92821484 L5.71428571,9.84375 C5.71428571,9.58408273 5.46441065,9.375 5.15856358,9.375 L5.15856358,9.375 L3.94745964e-15,9.374 L3.94745964e-15,4.6875 L13.244225,4.68705996 C10.7493809,6.07547315 9.07029478,8.67454671 9.07029478,11.6517857 Z M15.6516246,5.625 L20,10.3516441 L15.3288194,15 L15.3288194,11.9859081 C13.7432764,12.1522703 12.4045844,12.7198591 11.4551574,13.6201722 C11.2178007,10.4397181 12.5659869,8.56080374 15.6516246,7.99321503 L15.6516246,5.625 Z M18.8112641,-3.83145008e-10 C19.4688171,-3.83145008e-10 20.0021419,0.559802158 20,1.25 L20,1.25 L20,3.75 L3.94745964e-15,3.75 L3.94745964e-15,1.25 C3.94745964e-15,0.559802158 0.533324766,-3.83145008e-10 1.19087779,-3.83145008e-10 L1.19087779,-3.83145008e-10 Z" id="形状" fill="#828AA4" fill-rule="nonzero"></path>
                    </g>
                </g>
            </g>
        </g>
    </g>
</svg>