<?xml version="1.0" encoding="UTF-8"?>
<svg width="22px" height="20px" viewBox="0 0 22 20" version="1.1" xmlns="http://www.w3.org/2000/svg" xmlns:xlink="http://www.w3.org/1999/xlink">
    <title>身份验证-双色实心</title>
    <g id="个人信息" stroke="none" stroke-width="1" fill="none" fill-rule="evenodd">
        <g id="1" transform="translate(-479.000000, -222.000000)">
            <g id="身份验证-双色实心" transform="translate(479.000000, 222.000000)">
                <g>
                    <path d="M15.4377143,5.71103395 C14.4948571,6.46412037 13.9417143,7.01967593 13.7405714,7.50115741 L11.8297143,11.9949846 C11.6285714,12.4517747 11.2891429,12.8344907 11.2891429,12.8344907 C11.2891429,12.8344907 10.9371429,12.4641204 10.7485714,11.9949846 C9.592,9.30362654 9.592,9.30362654 8.86285714,7.59992284 C8.64914286,7.08140432 8.02057143,6.51350309 6.96457143,5.76041667 C6.67542857,5.55054012 6.27314286,5.63695988 6.072,5.93325617 C5.87085714,6.22955247 5.94628571,6.63695988 6.23542857,6.83449074 C7.10285714,7.45177469 7.60571429,7.90856481 7.69371429,8.11844136 L9.56685714,12.5011574 C9.944,13.3900463 10.6228571,14.1184414 11.2891429,14.1184414 C11.9554286,14.1184414 12.6342857,13.3900463 13.0114286,12.5011574 C14.1805714,9.76041667 14.1805714,9.76041667 14.9222857,8.00733025 C15.0102857,7.7974537 15.4628571,7.34066358 16.2297143,6.73572531 C16.5062857,6.51350309 16.5565714,6.10609568 16.3428571,5.82214506 C16.1165714,5.53819444 15.7142857,5.48881173 15.4377143,5.71103395 Z M11,19.9579475 C10.4594286,19.9579475 9.944,19.7233796 9.57942857,19.3159722 L0.628571429,9.47646605 C-0.088,8.68634259 -0.213714286,7.34066358 0.364571429,6.42708333 L3.432,1.51350309 C3.96,0.661651235 5.12914286,0.00733024691 6.10971429,0.00733024691 L15.8902857,0.00733024691 C16.8708571,0.00733024691 18.04,0.661651235 18.568,1.51350309 L21.6354286,6.42708333 C22.2011429,7.34066358 22.088,8.67399691 21.3714286,9.47646605 L12.4205714,19.3159722 C12.056,19.7233796 11.5405714,19.9579475 11,19.9579475 Z" id="形状" fill="#62697F" fill-rule="nonzero"></path>
                    <path d="M15.4377143,5.71103395 C14.4948571,6.46412037 13.9417143,7.01967593 13.7405714,7.50115741 L11.8297143,11.9949846 C11.6285714,12.4517747 11.2891429,12.8344907 11.2891429,12.8344907 C11.2891429,12.8344907 10.9371429,12.4641204 10.7485714,11.9949846 C9.592,9.30362654 9.592,9.30362654 8.86285714,7.59992284 C8.64914286,7.08140432 8.02057143,6.51350309 6.96457143,5.76041667 C6.67542857,5.55054012 6.27314286,5.63695988 6.072,5.93325617 C5.87085714,6.22955247 5.94628571,6.63695988 6.23542857,6.83449074 C7.10285714,7.45177469 7.60571429,7.90856481 7.69371429,8.11844136 L9.56685714,12.5011574 C9.944,13.3900463 10.6228571,14.1184414 11.2891429,14.1184414 C11.9554286,14.1184414 12.6342857,13.3900463 13.0114286,12.5011574 C14.1805714,9.76041667 14.1805714,9.76041667 14.9222857,8.00733025 C15.0102857,7.7974537 15.4628571,7.34066358 16.2297143,6.73572531 C16.5062857,6.51350309 16.5565714,6.10609568 16.3428571,5.82214506 C16.1165714,5.53819444 15.7142857,5.48881173 15.4377143,5.71103395 Z" id="路径" fill="#FFFFFF" fill-rule="nonzero"></path>
                </g>
            </g>
        </g>
    </g>
</svg>