<?xml version="1.0" encoding="UTF-8"?>
<svg width="18px" height="18px" viewBox="0 0 18 18" version="1.1" xmlns="http://www.w3.org/2000/svg" xmlns:xlink="http://www.w3.org/1999/xlink">
    <title>个人设置</title>
    <g id="个人信息" stroke="none" stroke-width="1" fill="none" fill-rule="evenodd">
        <g id="1" transform="translate(-483.000000, -690.000000)" fill="#62697F">
            <g id="个人设置" transform="translate(483.000000, 690.000000)">
                <g>
                    <path d="M2.99745858,4.42084581 C2.99745858,6.85156013 5.06072464,8.82204342 7.60589231,8.82204342 C10.15106,8.82204342 12.214326,6.85156013 12.214326,4.42084581 C12.214326,1.99013149 10.15106,0.0196481966 7.60589231,0.0196481966 C5.06072464,0.0196481966 2.99745858,1.99013149 2.99745858,4.42084581 Z" id="路径" fill-rule="nonzero"></path>
                    <path d="M9.59384413,13.5825225 C9.59384413,11.8759356 10.6781815,10.4388099 12.3046875,9.89988773 C11.9432417,9.63042665 11.5817959,9.36096558 11.1299887,9.18132484 C10.1360128,9.81006737 8.961314,10.2591692 7.69625377,10.2591692 C6.43119353,10.2591692 5.25649473,9.63042663 4.26251883,9.18132484 C1.73239834,10.2591692 0.0155308664,12.8639596 0.0155308664,15.7382111 C0.0155308664,17.9837201 8.41914532,18.5226422 12.8468562,17.3549775 C10.9492658,16.9956961 9.59384413,15.46875 9.59384413,13.5825225 Z" id="路径" fill-rule="nonzero"></path>
                    <path d="M17.3649285,13.5825225 C17.3649285,13.9418039 17.6360128,14.211265 17.9974586,14.211265 C17.9070971,14.6603668 17.7263742,15.1094686 17.4552899,15.46875 C17.1842056,15.1992889 16.8227598,15.2891093 16.5516754,15.46875 C16.2805911,15.7382111 16.2805911,16.0974925 16.5516754,16.3669536 C16.1902297,16.6364147 15.7384224,16.8160554 15.2866152,16.8160554 C15.2866152,16.4567739 15.0155309,16.1873129 14.6540851,16.1873129 C14.2926393,16.1873129 14.021555,16.4567739 14.021555,16.8160554 C13.5697478,16.726235 13.208302,16.5465943 12.8468562,16.2771332 C13.0275791,16.0076722 13.0275791,15.6483907 12.7564947,15.3789296 C12.4854104,15.1094686 12.1239646,15.1094686 11.8528803,15.2891093 C11.5817959,14.9298278 11.4010731,14.4807261 11.3107116,14.1214446 C11.6721574,14.1214446 11.9432417,13.7621632 11.9432417,13.4927021 C11.9432417,13.1334206 11.6721574,12.8639596 11.3107116,12.8639596 C11.4010731,12.4148578 11.5817959,11.965756 11.7625188,11.6064745 C12.0336032,11.8759356 12.395049,11.7861153 12.6661333,11.6064745 C12.9372176,11.3370135 12.9372176,10.977732 12.6661333,10.708271 C13.0275791,10.4388099 13.4793863,10.2591692 13.9311935,10.1693488 C13.9311935,10.5286303 14.2022779,10.7980913 14.5637237,10.7980913 C14.9251694,10.7980913 15.1962538,10.5286302 15.1962538,10.1693488 C15.648061,10.2591692 16.0998682,10.4388099 16.461314,10.708271 C16.1902297,10.977732 16.1902297,11.4268338 16.461314,11.6064745 C16.7323984,11.8759356 17.0938441,11.8759356 17.3649285,11.6064745 C17.6360128,11.965756 17.8167357,12.4148578 17.9070971,12.8639596 C17.7263742,12.95378 17.3649285,13.223241 17.3649285,13.5825225 Z M14.6540851,12.0555764 C13.8408321,12.0555764 13.208302,12.6843189 13.208302,13.4927021 C13.208302,14.3010853 13.8408321,14.9298278 14.6540851,14.9298278 C15.4673381,14.9298278 16.0998682,14.3010853 16.0998682,13.4927021 C16.0998682,12.6843189 15.4673381,12.0555764 14.6540851,12.0555764 Z" id="形状" fill-rule="nonzero"></path>
                </g>
            </g>
        </g>
    </g>
</svg>