<?xml version="1.0" encoding="UTF-8"?>
<svg width="16px" height="18px" viewBox="0 0 16 18" version="1.1" xmlns="http://www.w3.org/2000/svg" xmlns:xlink="http://www.w3.org/1999/xlink">
    <title>编组</title>
    <g id="登录" stroke="none" stroke-width="1" fill="none" fill-rule="evenodd">
        <g id="忘记密码-流程" transform="translate(-714.000000, -77.000000)">
            <g id="编组-7" transform="translate(119.000000, 76.000000)">
                <g id="编组-6">
                    <g id="编组-4" transform="translate(587.000000, 1.000000)">
                        <g id="编组" transform="translate(8.000000, 0.000000)">
                            <rect id="矩形" stroke="#666666" x="0.5" y="0.5" width="15" height="17" rx="2"></rect>
                            <path d="M4.02431697,9.32146118 C3.99498142,9.28780666 3.99184757,9.23737738 4.01677091,9.20003171 L4.36283299,8.7066554 C4.37454413,8.68980182 4.39224062,8.67858326 4.4119402,8.67552423 C4.43163979,8.67246521 4.45168759,8.6778227 4.46757225,8.69039111 L6.43580982,10.2707901 C6.50679211,10.3241393 6.60287573,10.322211 6.67185042,10.266053 L11.537094,6.01981125 C11.5701776,5.99179983 11.6179577,5.99368884 11.6489266,6.02423261 L11.9780855,6.36483517 C11.9922325,6.37960567 12.0001261,6.39969586 12,6.42060616 C11.9998708,6.44151647 11.9917325,6.46149951 11.9774063,6.47607972 L6.66271969,11.9554069 C6.63440826,11.9845123 6.59614811,12.0005633 6.55646098,12 C6.51677385,11.9994065 6.47895582,11.9822468 6.45143015,11.9523278 L4.02431697,9.32146118 Z" id="路径-copy-2" fill="#666666" fill-rule="nonzero"></path>
                        </g>
                    </g>
                </g>
            </g>
        </g>
    </g>
</svg>