<?xml version="1.0" encoding="UTF-8"?>
<svg width="41px" height="41px" viewBox="0 0 41 41" version="1.1" xmlns="http://www.w3.org/2000/svg" xmlns:xlink="http://www.w3.org/1999/xlink">
    <title>二维码失效</title>
    <g id="登录" stroke="none" stroke-width="1" fill="none" fill-rule="evenodd">
        <g id="切图" transform="translate(-450.000000, -134.000000)">
            <g id="二维码失效" transform="translate(450.000000, 134.000000)">
                <circle id="椭圆形-copy-2" fill="#FF6859" cx="20.5" cy="20.5" r="20.5"></circle>
                <path d="M29.325228,32 L26.6504559,32 L26.6504559,29.325228 L24.5106383,29.325228 L24.5106383,24.5106383 L27.1854103,24.5106383 L27.1854103,29.325228 L29.325228,29.325228 L29.325228,26.6504559 L32,26.6504559 L32,32 L29.325228,32 L29.325228,32 Z M21.5460993,32 L21.5460993,29.5035461 L24.0425532,29.5035461 L24.0425532,32 L21.5460993,32 Z M21.5460993,21.5460993 L24.0425532,21.5460993 L24.0425532,24.0425532 L21.5460993,24.0425532 L21.5460993,21.5460993 Z M29.5035461,21.5460993 L32,21.5460993 L32,24.0425532 L29.5035461,24.0425532 L29.5035461,21.5460993 Z M21.5460993,10 L32,10 L32,20.4539007 L21.5460993,20.4539007 L21.5460993,10 Z M23.106383,18.893617 L30.2836879,18.893617 L30.2836879,11.7163121 L23.106383,11.7163121 L23.106383,18.893617 Z M25.4468085,14.0567376 L27.9432624,14.0567376 L27.9432624,16.5531915 L25.4468085,16.5531915 L25.4468085,14.0567376 Z M10,21.5460993 L20.4539007,21.5460993 L20.4539007,32 L10,32 L10,21.5460993 Z M11.7163121,30.2836879 L18.893617,30.2836879 L18.893617,23.106383 L11.7163121,23.106383 L11.7163121,30.2836879 Z M14.0567376,25.4468085 L16.5531915,25.4468085 L16.5531915,27.9432624 L14.0567376,27.9432624 L14.0567376,25.4468085 Z M10,10 L20.4539007,10 L20.4539007,20.4539007 L10,20.4539007 L10,10 Z M11.7163121,18.893617 L18.893617,18.893617 L18.893617,11.7163121 L11.7163121,11.7163121 L11.7163121,18.893617 Z M14.0567376,14.0567376 L16.5531915,14.0567376 L16.5531915,16.5531915 L14.0567376,16.5531915 L14.0567376,14.0567376 Z" id="形状" fill="#FFFFFF" fill-rule="nonzero"></path>
            </g>
        </g>
    </g>
</svg>