<?xml version="1.0" encoding="UTF-8"?>
<svg width="16px" height="18px" viewBox="0 0 16 18" version="1.1" xmlns="http://www.w3.org/2000/svg" xmlns:xlink="http://www.w3.org/1999/xlink">
    <title>密码</title>
    <g id="登录" stroke="none" stroke-width="1" fill="none" fill-rule="evenodd">
        <g id="忘记密码-流程" transform="translate(-435.000000, -76.000000)" fill="#666666" fill-rule="nonzero">
            <g id="编组-7" transform="translate(119.000000, 76.000000)">
                <g id="编组-6">
                    <g id="编组-3" transform="translate(291.000000, 0.000000)">
                        <g id="密码" transform="translate(25.000000, 0.000000)">
                            <path d="M13.6359032,6.32922081 L13.6359032,5.53961222 C13.6359032,2.48478664 11.1078867,0 8,0 C4.89205213,0 2.36407637,2.48480669 2.36407637,5.53961222 L2.36407637,6.32922081 C1.04782184,6.40589975 0,7.48301426 0,8.79559969 L0,15.5288888 C0,16.8910629 1.12828228,18 2.51414407,18 L13.4858151,18 C14.8716769,18 16,16.8910629 16,15.5288888 L16,8.79559969 C16,7.48299421 14.9521374,6.40589975 13.6359032,6.32922081 Z M8,1.21280656 C10.4279714,1.21280656 12.4029652,3.15402294 12.4029652,5.53961222 L12.4029652,6.32446848 L3.59705516,6.32446848 L3.59705516,5.53961222 C3.59705516,3.15402294 5.57198777,1.21280656 8.0000204,1.21280656 L8,1.21280656 Z M14.766042,15.5288888 C14.766042,16.2226889 14.1917005,16.7872536 13.4857947,16.7872536 L2.51414407,16.7872536 C1.80821792,16.7872536 1.23389682,16.2226688 1.23389682,15.5288888 L1.23389682,8.79559969 C1.23389682,8.10177962 1.80821792,7.53725499 2.51414407,7.53725499 L13.4858151,7.53725499 C14.1917209,7.53725499 14.766042,8.10177962 14.766042,8.79559969 L14.766042,15.5288888 L14.766042,15.5288888 Z" id="形状"></path>
                            <path d="M8.4995633,9 C7.12115648,9 6,10.0743609 6,11.394177 C6,12.5007037 6.78823925,13.4342655 7.8552871,13.7072359 L7.8552871,15.3832006 C7.8552871,15.7240312 8.14359665,16 8.4995633,16 C8.85552995,16 9.14375429,15.7240312 9.14375429,15.3832006 L9.14375429,13.7073991 C10.2115477,13.4345714 11,12.5008261 11,11.394177 C11,10.0743609 9.87886483,9 8.4995846,9 L8.4995633,9 Z M8.4995633,12.5546532 C7.83115124,12.5546532 7.28654996,12.0341472 7.28654996,11.394177 C7.28654996,10.754166 7.83115124,10.2336804 8.4995846,10.2336804 C9.16891267,10.2336804 9.71255533,10.754166 9.71255533,11.394177 C9.71255533,12.0341472 9.16891267,12.5546532 8.4995846,12.5546532 L8.4995633,12.5546532 Z" id="形状"></path>
                        </g>
                    </g>
                </g>
            </g>
        </g>
    </g>
</svg>