<?xml version="1.0" encoding="UTF-8"?>
<svg width="16px" height="18px" viewBox="0 0 16 18" version="1.1" xmlns="http://www.w3.org/2000/svg" xmlns:xlink="http://www.w3.org/1999/xlink">
    <title>手机验证</title>
    <g id="登录" stroke="none" stroke-width="1" fill="none" fill-rule="evenodd">
        <g id="忘记密码-流程" transform="translate(-146.000000, -78.000000)" fill="#3674D7" fill-rule="nonzero">
            <g id="编组-7" transform="translate(119.000000, 76.000000)">
                <g id="编组-6">
                    <g id="编组-5" transform="translate(0.000000, 2.000000)">
                        <g id="手机验证" transform="translate(27.000000, 0.000000)">
                            <path d="M14.5454545,0 L1.45454546,0 C0.654545454,0 0,0.54 0,1.20000001 L0,16.8 C0,17.46 0.654545454,18 1.45454546,18 L14.5454545,18 C15.3454545,18 16,17.46 16,16.8 L16,1.20000001 C16,0.54 15.3454545,0 14.5454545,0 Z M15,17 L1,17 L1,14 L15,14 L15,17 Z M15,13 L1,13 L1,1 L15,1 L15,13 Z" id="形状"></path>
                            <path d="M7.23913043,9.86413195 C7.38586956,10.0452893 7.65489129,10.0452893 7.80163044,9.86413195 L11.9347826,4.7917249 C11.9347826,4.7917249 12.0815217,4.36902432 11.9347826,4.18786693 C11.5923913,3.76516634 11.201087,4.18786693 11.201087,4.18786693 L7.53260869,8.71680179 L5.72282608,6.48252725 C5.72282608,6.48252725 5.38043478,6.24098406 5.08695652,6.60329885 C4.89130435,6.84484204 5.08695652,7.20715683 5.08695652,7.20715683 L7.23913043,9.86413195 L7.23913043,9.86413195 Z" id="路径"></path>
                        </g>
                    </g>
                </g>
            </g>
        </g>
    </g>
</svg>