<?xml version="1.0" encoding="UTF-8"?>
<svg width="52px" height="52px" viewBox="0 0 52 52" version="1.1" xmlns="http://www.w3.org/2000/svg" xmlns:xlink="http://www.w3.org/1999/xlink">
    <title>成功 copy 2</title>
    <g id="登录" stroke="none" stroke-width="1" fill="none" fill-rule="evenodd">
        <g id="忘记密码-流程-copy-5" transform="translate(-403.000000, -235.000000)">
            <g id="成功-copy-2" transform="translate(403.000000, 235.000000)">
                <rect id="矩形-copy-12" fill="#3DBD7D" x="0" y="0" width="52" height="52" rx="26"></rect>
                <path d="M11.2331773,27.1939987 C11.1242167,27.0689962 11.1125767,26.8816874 11.2051491,26.7429749 L12.4905226,24.9104343 C12.5340211,24.8478353 12.5997509,24.8061664 12.6729208,24.7948043 C12.7460907,24.7834422 12.8205539,24.8033415 12.8795541,24.8500241 L20.1901507,30.7200777 C20.4537993,30.9182318 20.8106813,30.9110695 21.066873,30.7024825 L39.1377778,14.9307275 C39.2606596,14.8266851 39.4381288,14.8337014 39.5531558,14.9471497 L40.7757461,16.2122449 C40.8282921,16.2671068 40.8576113,16.3417275 40.8571429,16.4193943 C40.856663,16.4970612 40.8264351,16.5712839 40.7732236,16.625439 L21.0329589,36.9772257 C20.9278021,37.0853312 20.785693,37.1449493 20.6382836,37.1428571 C20.4908743,37.1406528 20.3504073,37.0769167 20.2481691,36.9657888 L11.2331773,27.1939987 Z" id="路径-copy-5" fill="#FFFFFF" fill-rule="nonzero"></path>
            </g>
        </g>
    </g>
</svg>