<?xml version="1.0" encoding="UTF-8"?>
<svg width="41px" height="41px" viewBox="0 0 41 41" version="1.1" xmlns="http://www.w3.org/2000/svg" xmlns:xlink="http://www.w3.org/1999/xlink">
    <title>二维码成功</title>
    <g id="登录" stroke="none" stroke-width="1" fill="none" fill-rule="evenodd">
        <g id="切图" transform="translate(-385.000000, -134.000000)">
            <g id="二维码成功" transform="translate(385.000000, 134.000000)">
                <circle id="椭圆形-copy" fill="#3674D7" cx="20.5" cy="20.5" r="20.5"></circle>
                <path d="M9.06991128,22.8572298 C8.98557159,22.7674844 8.97656176,22.6330064 9.04821637,22.5334179 L10.0431449,21.2177477 C10.0768144,21.1728048 10.1276918,21.1428887 10.1843281,21.1347313 C10.2409644,21.1265739 10.2986018,21.1408605 10.3442702,21.1743763 L16.0029532,25.3887737 C16.2070273,25.5310382 16.4832677,25.525896 16.68157,25.3761413 L30.6691453,14.05283 C30.7642606,13.9781329 30.9016285,13.9831702 30.9906639,14.0646203 L31.9369958,14.9728938 C31.9776684,15.0122818 32.0003626,15.0658556 32,15.1216164 C31.9996286,15.1773772 31.976231,15.2306654 31.9350433,15.2695459 L16.6553191,29.8810851 C16.5739237,29.9586993 16.4639258,30.001502 16.3498253,30 C16.2357248,29.9984174 16.126998,29.9526582 16.0478617,29.872874 L9.06991128,22.8572298 Z" id="路径-copy-2" fill="#FFFFFF" fill-rule="nonzero"></path>
            </g>
        </g>
    </g>
</svg>